<?xml version="1.0" encoding="UTF-8" standalone="no"?>
<!-- Created with Inkscape (http://www.inkscape.org/) -->

<svg
   version="1.1"
   id="svg2"
   width="523.50665"
   height="210.26666"
   viewBox="0 0 523.50665 210.26666"
   sodipodi:docname="universita-degli-studi-di-palermo.eps"
   xmlns:inkscape="http://www.inkscape.org/namespaces/inkscape"
   xmlns:sodipodi="http://sodipodi.sourceforge.net/DTD/sodipodi-0.dtd"
   xmlns="http://www.w3.org/2000/svg"
   xmlns:svg="http://www.w3.org/2000/svg">
  <defs
     id="defs6" />
  <sodipodi:namedview
     id="namedview4"
     pagecolor="#ffffff"
     bordercolor="#000000"
     borderopacity="0.25"
     inkscape:showpageshadow="2"
     inkscape:pageopacity="0.0"
     inkscape:pagecheckerboard="0"
     inkscape:deskcolor="#d1d1d1" />
  <g
     id="g8"
     inkscape:groupmode="layer"
     inkscape:label="ink_ext_XXXXXX"
     transform="matrix(1.3333333,0,0,-1.3333333,0,210.26667)">
    <g
       id="g10"
       transform="scale(0.1)">
      <path
         d="m 687.402,71.0391 c -2.242,3.0117 -3.808,6.2812 -4.75,9.7304 -0.898,3.4493 -1.125,7.4024 -0.761,11.7891 0.984,10.5004 5.691,18.8824 14.078,25.0194 8.429,6.113 18.386,8.66 29.961,7.582 5.379,-0.398 10.578,-1.789 15.734,-3.898 5.199,-2.153 9.598,-4.571 13.277,-7.313 l 4.168,5.789 6.77,-0.59 -2.649,-41.0191 -6.765,0.6602 c -0.985,5.1601 -2.11,9.8828 -3.684,14.082 -1.519,4.2578 -3.672,8.2579 -6.41,12.0779 -2.601,3.582 -5.734,6.582 -9.457,8.871 -3.726,2.34 -8.164,3.668 -13.32,4.211 -3.86,0.309 -7.309,0.141 -10.313,-0.621 -2.922,-0.719 -5.383,-1.98 -7.402,-3.64 -1.973,-1.7 -3.453,-3.77 -4.57,-6.141 -1.036,-2.418 -1.797,-5.289 -2.11,-8.5587 -0.406,-4.7109 0.492,-9.2383 2.778,-13.6914 2.378,-4.3398 6.097,-7.8906 11.211,-10.4805 3.546,-1.75 7.535,-3.7187 12.109,-5.9687 4.527,-2.2383 8.433,-4.2578 11.75,-6.0899 6.41,-3.6406 11.297,-8.1289 14.574,-13.3203 3.274,-5.3007 4.617,-11.8906 3.809,-19.7812 -0.403,-4.5274 -1.7,-8.6563 -3.946,-12.418 -2.199,-3.7695 -5.113,-7 -8.832,-9.83202 C 739.109,4.89844 735.117,2.96094 730.453,1.75 725.879,0.5 721.172,0.101563 716.418,0.539063 710.945,0.988281 706.016,2.28906 701.797,4.39844 c -4.121,2.07031 -7.891,4.4414 -11.344,6.99996 l -3.898,-5.42965 -6.774,0.63281 2.957,39.63674 6.817,-0.6289 c 0.804,-4.6211 1.84,-9.0508 3.004,-13.4102 1.125,-4.2578 2.785,-8.1992 4.937,-11.8398 2.106,-3.3985 4.844,-6.2696 8.113,-8.5586 3.321,-2.19924 7.493,-3.62892 12.555,-4.08205 5.344,-0.48828 10,0.8125 14.082,3.90235 4.039,3.0508 6.367,7.0508 6.774,12.0195 0.492,5.1485 -0.313,9.5508 -2.422,13.1797 -2.157,3.6289 -5.383,6.6797 -9.821,9.3399 -3.855,2.3203 -7.714,4.3906 -11.523,6.1796 -3.859,1.75 -7.535,3.6797 -11.035,5.6485 -3.274,1.75 -6.367,3.7226 -9.281,5.832 -2.961,2.1485 -5.426,4.5195 -7.536,7.2188"
         style="fill:#1a69b0;fill-opacity:1;fill-rule:nonzero;stroke:none"
         id="path12" />
      <path
         d="m 626.863,138.93 52.828,-10.852 -1.211,-5.918 c -1.476,0.231 -3.675,0.488 -6.546,0.852 -2.871,0.359 -4.887,0.5 -6.098,0.269 -2.066,-0.359 -3.5,-1.082 -4.621,-2.152 -1.078,-1.027 -1.84,-2.688 -2.328,-4.891 L 641.484,31.1289 c -0.398,-1.9297 -0.449,-3.5508 -0.136,-4.9805 0.363,-1.4375 1.617,-2.8281 3.632,-4.1171 1.485,-1.0821 3.458,-2.0313 5.879,-3.1915 2.422,-1.121 4.344,-1.8281 5.918,-2.2812 l -1.211,-5.8789 -52.828,10.8516 1.168,5.8789 c 1.746,-0.3204 3.809,-0.5391 6.282,-0.5899 2.464,-0.1797 4.617,-0.1406 6.496,0.0508 2.199,0.2187 3.859,0.9883 4.843,2.3281 1.032,1.3516 1.703,3 2.067,4.75 l 17.527,84.9808 c 0.363,1.84 0.274,3.539 -0.219,5.121 -0.543,1.558 -1.66,2.961 -3.406,4.168 -1.078,0.621 -2.871,1.57 -5.387,2.59 -2.507,1.082 -4.707,1.8 -6.457,2.293 l 1.211,5.828"
         style="fill:#1a69b0;fill-opacity:1;fill-rule:nonzero;stroke:none"
         id="path14" />
      <path
         d="m 494.938,131.852 c 1.339,-0.27 3.093,-0.59 5.335,-0.993 2.332,-0.449 4.258,-0.578 5.782,-0.41 1.84,0.281 3.41,1.039 4.574,2.25 1.168,1.211 2.109,2.871 2.738,4.789 l 3.094,8.793 c 2.238,6.367 3.727,10.731 4.394,12.918 0.766,2.34 1.254,4.172 1.661,5.61 8.16,0.761 16.054,0.761 23.675,0 7.625,-0.719 14.801,-2.289 21.575,-4.618 7.172,-2.511 13.761,-6.281 19.461,-11.351 5.738,-5.07 10.261,-10.981 13.539,-17.66 3.277,-6.871 5.113,-14.36 5.605,-22.649 0.449,-8.301 -0.898,-16.9099 -3.945,-25.8826 -3.051,-8.5976 -7.223,-16.0898 -12.692,-22.457 -5.379,-6.3711 -11.613,-11.3516 -18.742,-14.9805 -6.859,-3.5507 -14.394,-5.6093 -22.379,-6.1015 -7.976,-0.5781 -16.054,0.539 -24.035,3.3594 -6.324,2.2421 -11.656,4.9414 -15.785,8.121 -4.215,3.1797 -7.801,6.5 -10.629,9.9102 l -5.156,-4.2187 -6.41,2.1992 13.09,39.8203 6.503,-2.332 c -0.449,-4.7071 -0.492,-9.5 -0.312,-14.3086 0.176,-4.7891 0.984,-9.3204 2.422,-13.6289 1.48,-4.211 3.765,-7.9297 6.765,-11.3008 3.055,-3.2696 7.223,-5.8321 12.422,-7.6602 5.742,-1.9805 11.168,-2.6484 16.461,-1.8398 5.293,0.7578 10.406,2.8203 15.293,6.2695 4.75,3.2813 9.196,7.9414 13.231,13.9102 4.082,6 7.488,13.039 10.308,21.2109 2.512,7.1289 4.082,14.3009 4.532,21.2579 0.453,6.941 -0.18,13.312 -1.883,19.101 -1.66,5.872 -4.395,10.981 -8.383,15.469 -4.082,4.481 -9.238,7.711 -15.52,9.949 -4.664,1.622 -9.144,2.383 -13.589,2.293 -4.344,-0.082 -7.579,-0.671 -9.723,-1.711 -1.352,-2.589 -2.606,-5.332 -3.59,-8.109 -0.988,-2.871 -1.887,-5.211 -2.516,-7.18 l -2.199,-6.281 c -0.762,-2.148 -1.16,-4.262 -1.16,-6.18 0,-1.929 0.852,-3.628 2.512,-5.121 1.433,-1.429 3.633,-2.871 6.453,-4.3 2.922,-1.438 5.156,-2.508 6.863,-3.227 l -2.062,-5.832 -49.594,17.309 2.016,5.793"
         style="fill:#1a69b0;fill-opacity:1;fill-rule:nonzero;stroke:none"
         id="path16" />
      <path
         d="m 463.949,203.148 48.16,-24.308 -2.683,-5.328 c -1.395,0.617 -3.457,1.437 -6.106,2.547 -2.691,1.082 -4.621,1.711 -5.918,1.8 -1.972,0.172 -3.632,-0.089 -4.929,-0.847 -1.301,-0.731 -2.563,-2.16 -3.453,-4.172 L 449.824,95.3516 c -0.898,-1.75 -1.301,-3.3203 -1.39,-4.8516 0,-1.4297 0.804,-3.1289 2.421,-4.9297 1.165,-1.3984 2.829,-2.9609 4.797,-4.582 2.063,-1.6485 3.766,-2.9102 5.203,-3.8086 l -2.691,-5.2891 -48.254,24.2696 2.735,5.3278 c 1.574,-0.758 3.546,-1.488 5.878,-2.1482 2.29,-0.8085 4.399,-1.3515 6.278,-1.6601 2.195,-0.3594 4.039,-0.0508 5.336,0.9414 1.301,1.0703 2.422,2.4179 3.23,4.0269 l 39.106,77.493 c 0.847,1.66 1.16,3.281 1.121,4.98 -0.047,1.609 -0.813,3.27 -2.156,4.93 -0.895,0.949 -2.418,2.199 -4.528,3.898 -2.152,1.711 -4.039,2.973 -5.695,3.871 l 2.734,5.328"
         style="fill:#1a69b0;fill-opacity:1;fill-rule:nonzero;stroke:none"
         id="path18" />
      <path
         d="m 354.938,231.09 21.925,28.25 77.895,-51.969 -3.41,-5.031 c -1.121,0.719 -2.871,1.621 -5.114,2.781 -2.285,1.16 -4.031,1.891 -5.113,2.109 -1.789,0.258 -3.406,0.141 -4.793,-0.671 -1.484,-0.727 -2.781,-1.977 -3.945,-3.809 l -47.715,-71.488 c -1.035,-1.524 -1.66,-3.043 -1.93,-4.703 -0.359,-1.579 0.09,-3.278 1.211,-5.071 0.719,-1.297 1.75,-2.816 3.41,-4.668 1.567,-1.84 3,-3.218 4.168,-4.211 l -3.363,-4.929 -42.059,28.109 3.313,4.941 c 1.395,-0.808 3.227,-1.71 5.562,-2.652 2.379,-1.039 4.125,-1.609 5.336,-1.918 1.93,-0.551 3.676,-0.281 5.204,0.66 1.433,0.989 2.734,2.289 3.812,3.77 l 44.574,66.949 c 2.149,3.141 3.539,5.652 4.395,7.531 0.847,1.891 1.031,3.68 0.492,5.379 -0.492,1.582 -1.75,3.192 -3.727,4.852 -1.968,1.711 -4.839,3.847 -8.695,6.41 -1.703,1.129 -3.543,2.34 -5.426,3.5 -2.019,1.07 -3.902,2.16 -5.742,2.961 -1.836,0.758 -3.586,1.476 -5.293,1.879 -1.789,0.398 -3.18,0.5 -4.344,0.187 -3.371,-0.859 -7.761,-2.699 -13.23,-5.34 -5.473,-2.687 -9.598,-5.019 -12.379,-7.128 l -5.019,3.32"
         style="fill:#1a69b0;fill-opacity:1;fill-rule:nonzero;stroke:none"
         id="path20" />
      <path
         d="m 275.293,303.691 25.918,24.579 69.148,-63.239 -4.125,-4.441 c -1.074,0.808 -2.644,2.019 -4.707,3.59 -2.062,1.48 -3.632,2.379 -4.664,2.781 -1.703,0.629 -3.363,0.629 -4.929,0.09 -1.485,-0.492 -3.008,-1.571 -4.446,-3.231 l -57.937,-63.269 c -1.297,-1.403 -2.196,-2.973 -2.688,-4.442 -0.496,-1.48 -0.359,-3.238 0.403,-5.16 0.492,-1.398 1.433,-3.129 2.734,-5.16 1.211,-2.059 2.379,-3.68 3.406,-4.789 l -3.941,-4.391 -37.356,34.121 4.036,4.43 c 1.164,-1.031 2.871,-2.191 5.066,-3.5 2.195,-1.301 3.855,-2.23 4.934,-2.68 1.882,-0.808 3.628,-0.808 5.246,-0.089 1.66,0.711 3.05,1.789 4.261,3.179 l 54.442,59.328 c 2.465,2.731 4.258,4.981 5.379,6.774 1.121,1.789 1.57,3.488 1.343,5.289 -0.312,1.609 -1.296,3.41 -2.91,5.379 -1.711,1.969 -4.304,4.441 -7.629,7.629 -1.566,1.351 -3.179,2.769 -4.972,4.211 -1.75,1.429 -3.41,2.742 -5.2,3.851 -1.664,1.129 -3.367,1.938 -4.937,2.61 -1.617,0.718 -3.047,1.031 -4.258,0.89 -3.453,-0.351 -8.07,-1.472 -13.812,-3.269 -5.918,-1.84 -10.317,-3.551 -13.41,-5.16 l -4.395,4.089"
         style="fill:#1a69b0;fill-opacity:1;fill-rule:nonzero;stroke:none"
         id="path22" />
      <path
         d="m 224.395,261.262 c 3.718,6.597 10.941,19.328 21.703,38.027 10.632,18.742 21.754,38.199 33.367,58.391 l -4.485,5.379 c -20.941,-7.039 -41.125,-13.68 -60.539,-20.047 -19.375,-6.321 -33.722,-10.903 -42.961,-13.774 -2.691,-0.707 -5.113,-1.207 -7.218,-1.558 -2.196,-0.309 -4.395,-0.09 -6.457,0.621 -1.571,0.449 -3.231,1.39 -4.977,2.597 -1.031,0.641 -1.844,1.313 -2.601,1.942 -1.614,1.609 -3.098,3.32 -3.766,5.832 -0.633,2.59 -0.719,5.019 -0.27,7.207 0.356,2.109 1.438,4.082 2.911,5.883 1.574,1.879 3.859,3.718 6.91,5.508 l 53.051,30.671 c 6.722,3.86 11.566,6.239 14.792,7.27 3.235,0.988 5.969,1.027 8.297,0.141 1.84,-0.723 3.727,-2.153 5.653,-4.223 1.925,-2.098 3.633,-4.207 5.109,-6.32 l 5.207,3.05 -24.266,41.93 -5.199,-3.051 c 0.539,-0.988 1.395,-3.539 2.379,-7.398 1.031,-3.91 1.301,-6.68 0.895,-8.391 -0.446,-2.328 -1.973,-4.789 -4.707,-7.347 -2.692,-2.563 -6.996,-5.614 -13.098,-9.071 l -61.879,-35.781 -0.543,0.941 70.77,85.93 -2.114,3.629 -108.879,-15.699 -0.582,1.027 75.379,43.641 c 1.836,1.07 3.59,1.613 5.161,1.613 1.613,0 3.269,-0.543 5.066,-1.531 1.168,-0.621 2.644,-2.231 4.394,-4.61 1.793,-2.511 3.184,-4.492 4.168,-6.101 l 5.207,2.961 -26.503,45.828 -5.207,-2.957 c 0.718,-1.313 1.527,-3.281 2.421,-5.742 0.903,-2.559 1.352,-4.309 1.395,-5.469 0.043,-2.16 -0.313,-3.91 -1.168,-5.121 -0.852,-1.301 -2.109,-2.418 -3.809,-3.399 L 92.6016,450.5 c -1.6602,-0.98 -3.2735,-1.57 -4.9805,-1.75 -1.7461,-0.219 -3.3633,0.32 -4.8867,1.66 -0.8946,0.77 -2.1055,2.149 -3.7656,4.039 -1.6602,1.84 -2.8243,3.5 -3.6329,4.801 l -5.2929,-2.961 19.6445,-33.848 c 0.8984,0.481 2.8242,1.11 5.7813,1.969 3.0078,0.801 5.9692,1.52 8.8832,1.922 l 79.867,12.289 -60.766,-74.75 20.629,-33.32 28.52,-34.313 4.527,3.864 c -1.074,1.66 -2.106,3.269 -3.137,4.878 -1.031,1.661 -1.883,3.372 -2.691,5.161 -0.766,1.89 -1.121,3.55 -1.211,5.031 0,1.437 0.402,2.547 1.39,3.359 0.942,0.809 2.29,1.801 3.993,2.68 1.75,1.129 5.156,2.519 10.269,4.359 5.336,1.918 15.199,5.328 29.641,10.18 14.527,4.75 27.133,8.828 37.847,12.238 -12.152,-21.379 -21.57,-37.847 -28.207,-49.508 -6.546,-11.519 -11.3,-19.859 -14.168,-25.019 -0.32,-0.449 -0.718,-0.992 -1.21,-1.75 -0.497,-0.672 -1.032,-1.211 -1.438,-1.609 -1.254,-1.032 -3.051,-0.633 -5.379,1.16 -2.293,1.886 -4.933,4.308 -7.805,7.437 l -4.617,-3.847 31.789,-38.071 4.578,3.809 c -0.894,1.262 -1.793,2.781 -2.601,4.531 -0.809,1.699 -1.391,3.5 -1.613,5.289 -0.27,2.149 -0.223,4.121 0.043,5.828 0.312,1.703 0.898,3.41 1.793,5.024"
         style="fill:#1a69b0;fill-opacity:1;fill-rule:nonzero;stroke:none"
         id="path24" />
      <path
         d="m 47.8906,618.527 c 5.9649,1.75 11.6172,2.161 16.9532,1.125 5.2929,-0.984 10.0859,-3.097 14.3515,-6.367 4.2149,-3.234 7.7578,-7.09 10.625,-11.57 2.8281,-4.485 5.0235,-9.555 6.6836,-15.024 l 3.8091,-12.921 34.8,10.277 c 1.883,0.539 3.45,1.387 4.754,2.375 1.254,1.082 1.973,2.644 2.153,4.84 0.089,1.086 -0.047,2.871 -0.497,5.48 -0.355,2.551 -0.894,4.793 -1.433,6.903 l 5.785,1.699 14.574,-49.364 -5.832,-1.66 c -0.492,1.25 -1.211,3.051 -2.238,5.418 -0.941,2.383 -1.75,3.992 -2.555,4.891 -1.125,1.391 -2.515,2.242 -4.082,2.562 -1.617,0.348 -3.457,0.219 -5.515,-0.359 L 57.2656,542.391 c -1.9297,-0.539 -3.4961,-1.352 -4.8867,-2.289 -1.3476,-1.032 -2.1562,-2.563 -2.2891,-4.84 -0.1328,-2.25 0,-4.453 0.3165,-6.551 0.2656,-2.102 0.625,-3.902 0.9414,-5.391 l -5.7852,-1.781 -15.4258,52.59 c -3.1406,10.68 -3.1406,20.094 0.1328,28.305 3.0508,8.203 8.9688,13.586 17.6211,16.093 m 26.8672,-18.875 c -3.1836,1.075 -6.1445,1.524 -9.1523,1.297 -2.9571,-0.261 -5.6055,-0.711 -7.7578,-1.336 -3.0899,-0.859 -6.1016,-2.207 -9.1016,-3.867 -2.9141,-1.652 -5.3398,-3.723 -7.2227,-6.23 -1.9726,-2.649 -3.2265,-5.645 -3.7226,-9.141 -0.5352,-3.543 -0.043,-7.574 1.2578,-12.156 l 3.4062,-11.438 50.8086,14.93 -2.4648,8.301 c -1.75,5.832 -3.9922,10.265 -6.8633,13.41 -2.914,3.094 -5.918,5.156 -9.1875,6.23"
         style="fill:#1a69b0;fill-opacity:1;fill-rule:nonzero;stroke:none"
         id="path26" />
      <path
         d="m 131.746,665.258 -5.961,-0.988 c 0.492,-4.344 0.406,-8.426 -0.265,-12.145 -0.676,-3.684 -2.067,-5.742 -4.352,-6.105 -0.898,-0.09 -2.152,-0.176 -3.766,-0.137 -1.433,0.047 -3.457,0.222 -6.011,0.547 -2.559,0.402 -5.379,0.847 -8.383,1.336 -3.0978,0.539 -6.6838,1.261 -10.8088,2.199 l -6.6367,41.484 24.9295,14.082 c 0.539,0.313 1.168,0.574 1.844,0.801 0.762,0.223 1.297,0.359 1.836,0.5 1.211,0.176 2.465,-1.074 3.719,-3.773 1.347,-2.821 2.515,-6.278 3.457,-10.586 l 5.961,0.988 -7.352,45.477 0.719,43.363 -6.059,0.047 c -0.043,-1.305 -0.672,-3.907 -1.836,-7.989 -1.121,-4.035 -2.289,-6.718 -3.543,-7.929 -1.609,-1.797 -4.304,-3.094 -8.027,-3.907 -3.7227,-0.847 -9.0118,-1.164 -15.918,-1.074 l -61.9297,1.035 99.2387,71.024 0.179,7.355 -87.7615,1.391 c -6.1406,0.094 -11.164,0.582 -15.1992,1.305 -3.9883,0.761 -6.6367,2.199 -8.0273,4.214 -0.8516,1.481 -1.7032,3.813 -2.51175,7.082 -0.76172,3.274 -1.21094,5.696 -1.21094,7.27 l -6.00781,0.129 -0.76172,-48.789 5.91797,-0.086 c 0.22266,1.879 0.80859,4.617 1.88281,8.113 1.03514,3.59 2.15234,6.188 3.27734,7.715 1.2539,1.656 3.7656,2.918 7.4414,3.723 3.7695,0.89 9.1953,1.254 16.1914,1.164 L 93.0469,833.152 0.492188,767.277 0,733.012 5.96875,732.926 c 0.12891,2.105 0.9375,4.89 2.28125,8.347 1.38672,3.446 3.0039,6.184 4.9336,8.204 1.3906,1.472 3.4531,2.648 6.0117,3.543 2.5977,0.8 5.1992,1.25 7.7578,1.203 l 59.1016,-0.938 c 7.8476,-0.137 13.3633,-0.625 16.5473,-1.437 3.183,-0.758 5.605,-2.149 7.171,-4.121 0.813,-0.946 1.618,-3.18 2.563,-6.817 0.492,-1.883 0.848,-3.406 1.07,-4.703 -0.222,-2.074 -0.578,-3.82 -1.121,-5.168 -0.984,-2.101 -2.058,-3.762 -3.269,-5.019 -1.125,-1.25 -2.739,-2.559 -4.707,-3.672 L 8.42578,666.555 9.46094,659.926 c 15.42576,-3.321 32.87496,-7.09 52.51176,-11.348 19.7304,-4.172 37.4921,-8.113 53.1833,-11.66 3.141,-0.723 5.52,-1.574 7.403,-2.512 1.879,-0.984 3.718,-2.422 5.554,-4.394 1.168,-1.258 2.114,-2.918 3.008,-5.028 0.852,-2.058 1.438,-3.847 1.84,-5.246 l 5.918,0.899 z m -96.2265,-3.223 43.0938,25.242 5.6445,-35.562 -48.7383,10.32"
         style="fill:#1a69b0;fill-opacity:1;fill-rule:nonzero;stroke:none"
         id="path28" />
      <path
         d="m 37.1758,975.574 c 6.414,4.172 13.7226,6.949 21.9258,8.434 8.25,1.433 16.9961,1.211 26.2812,-0.586 9.375,-1.836 17.5312,-4.934 24.5742,-9.414 7.082,-4.488 12.777,-9.914 17.082,-16.281 4.262,-6.098 7.27,-12.914 8.746,-20.266 1.617,-7.313 1.617,-14.891 0.09,-22.559 -1.566,-8.211 -4.574,-15.425 -8.973,-21.793 -4.48,-6.324 -9.816,-11.48 -16.316,-15.382 -6.277,-3.899 -13.5899,-6.547 -21.754,-7.938 -8.2031,-1.348 -16.6797,-1.211 -25.4257,0.492 -9.5508,1.887 -17.8438,5.024 -24.7032,9.465 -6.9101,4.438 -12.6054,9.817 -17.0429,16.184 -4.4414,6.195 -7.4024,13.097 -8.9258,20.5 -1.5235,7.398 -1.5664,14.883 -0.1328,22.418 1.5664,7.8 4.3945,14.886 8.7461,21.211 4.2148,6.371 9.5507,11.476 15.8281,15.515 m 80.9882,-28.605 c -4.441,4.121 -9.73,7.437 -15.785,10.129 -6.0118,2.601 -13.004,4.711 -20.8985,6.238 -8.0742,1.609 -15.6055,2.238 -22.6914,1.969 -7.086,-0.223 -13.2266,-1.477 -18.6094,-3.586 -5.25,-2.156 -9.6875,-5.203 -13.1836,-9.285 -3.5,-4.082 -5.875,-9.012 -6.9961,-15.016 -1.2969,-6.594 -0.8477,-12.516 1.2969,-17.805 2.1094,-5.25 5.3828,-9.781 9.957,-13.726 4.3086,-3.719 9.6445,-6.86 15.875,-9.504 6.2344,-2.602 13.0078,-4.574 20.1797,-6.008 7.9844,-1.574 15.293,-2.199 21.9727,-2.023 6.6875,0.183 12.7817,1.3 18.3827,3.496 5.477,2.023 9.965,4.984 13.59,9.015 3.633,3.992 6.055,9.149 7.309,15.43 1.125,5.961 0.761,11.523 -1.075,16.859 -1.84,5.25 -4.886,9.868 -9.324,13.817"
         style="fill:#1a69b0;fill-opacity:1;fill-rule:nonzero;stroke:none"
         id="path30" />
      <path
         d="m 256.461,1206.83 c -0.856,-1.3 -2.199,-2.87 -3.988,-4.79 -1.754,-1.98 -3.188,-3.19 -4.219,-3.82 -1.887,-0.99 -3.496,-1.48 -5.024,-1.34 -1.527,0.13 -3.136,0.71 -4.796,1.83 l -73.051,46.02 c -1.66,0.94 -2.871,2.19 -3.86,3.63 -0.988,1.39 -1.296,3.05 -0.804,5.02 0.265,1.21 0.898,2.96 1.84,5.25 0.847,2.28 1.75,4.12 2.554,5.51 l -5.113,3.19 -20.852,-33.1 c 0.852,-0.59 2.375,-1.97 4.528,-4.26 2.152,-2.19 4.039,-4.48 5.875,-6.9 l 48.027,-64.94 -94.394,18.92 -21.7934,-34.66 5.0664,-3.14 c 1.4336,2.07 3.1407,3.9 5.1172,5.66 1.9688,1.79 4.0742,3 6.2735,3.63 2.0625,0.62 4.2153,0.67 6.5473,0.13 2.421,-0.45 5.07,-1.62 8.027,-3.5 l 51.93,-32.69 c 6.461,-4.13 10.898,-7.26 13.226,-9.68 2.422,-2.34 3.723,-4.76 4.039,-7.23 0.223,-1.93 -0.094,-4.35 -1.125,-6.99 -0.89,-2.65 -1.929,-6.01 -3.137,-8.29 -0.453,-0.63 -0.894,-1.17 -1.386,-1.58 -1.66,-1.52 -3.59,-2.91 -5.742,-4.16 -2.243,-1.3 -5.34,-2.51 -9.414,-3.64 -9.196,-2.6 -17,-4.75 -23.411,-6.45 -6.418,-1.76 -14.304,-4 -23.726,-6.69 0.406,4.4 0.316,8.61 -0.043,12.61 -0.363,3.9 -1.254,7.44 -2.602,10.76 -1.386,3.45 -3.496,6.54 -6.324,9.1 -2.867,2.56 -6.3672,4.71 -10.7148,6.37 -4.7969,1.84 -9.2344,2.37 -13.3633,1.74 -4.125,-0.62 -7.8476,-2.19 -11.2109,-4.65 -3.5,-2.56 -6.4571,-5.7 -9.1055,-9.47 -2.5117,-3.81 -4.707,-7.98 -6.543,-12.82 l -19.7773,-51.62 5.6484,-2.15 c 0.6289,1.43 1.5703,3.13 2.8242,5.11 1.211,1.93 2.2422,3.41 3.2774,4.57 1.4336,1.71 2.9609,2.47 4.5703,2.43 1.6602,0 3.4063,-0.32 5.25,-0.99 l 80.8985,-30.987 c 2.059,-0.804 3.629,-1.793 4.613,-3.054 1.078,-1.211 1.617,-2.684 1.707,-4.524 0.09,-1.168 -0.179,-2.961 -0.894,-5.382 -0.633,-2.555 -1.168,-4.489 -1.481,-5.743 l 5.563,-2.152 18.113,47.312 -5.605,2.2 c -0.625,-1.62 -1.575,-3.59 -2.825,-5.79 -1.257,-2.24 -2.199,-3.76 -2.918,-4.57 -1.48,-1.66 -3.004,-2.47 -4.621,-2.51 -1.609,-0.05 -3.355,0.27 -5.199,0.99 l -35.469,13.54 4.352,11.47 c 10.488,3.24 20.582,6.11 30.312,8.57 9.688,2.42 21.032,5.02 34.082,7.67 l 11.481,30.18 20.582,32.91 -5.156,3.24 c -0.676,-0.99 -2.422,-2.83 -5.383,-5.57 -3.047,-2.69 -5.336,-4.3 -6.996,-4.7 -2.328,-0.68 -5.246,-0.45 -8.789,0.76 -3.453,1.16 -8.207,3.59 -14.039,7.26 l -60.536,38.12 0.583,0.98 109.015,-22.6 2.195,3.59 -64.668,88.97 0.723,1.07 73.723,-46.41 c 1.793,-1.12 3.047,-2.38 3.808,-3.81 0.723,-1.43 1.079,-3.14 1.036,-5.2 -0.086,-1.3 -0.762,-3.32 -2.067,-6.05 -1.39,-2.74 -2.465,-4.94 -3.406,-6.56 l 5.023,-3.18 28.207,44.84 z m -151.887,-165.78 -3.945,-10.32 -47.9806,18.34 5.1524,13.41 c 2.6914,7.13 6.7734,11.88 12.2422,14.26 5.4765,2.38 11.5742,2.24 18.3476,-0.31 8.0235,-3.09 13.4064,-7.89 16.1834,-14.57 2.781,-6.6 2.781,-13.55 0,-20.81"
         style="fill:#1a69b0;fill-opacity:1;fill-rule:nonzero;stroke:none"
         id="path32" />
      <path
         d="m 303.008,1246.43 -35.473,-40.76 -4.527,3.99 c 0.898,1.25 2.195,3 3.945,5.29 1.746,2.28 2.777,4.12 3.274,5.25 0.628,1.93 0.757,3.58 0.402,5.02 -0.402,1.52 -1.481,2.96 -3.141,4.44 l -65.422,57.13 c -1.531,1.3 -2.918,2.15 -4.351,2.51 -1.438,0.4 -3.227,0.04 -5.426,-1.12 -1.57,-0.81 -3.449,-1.97 -5.648,-3.5 -2.067,-1.52 -3.727,-2.91 -4.844,-4.08 l -4.574,3.95 35.511,40.67 4.489,-3.95 c -1.125,-1.34 -2.289,-3.09 -3.633,-5.11 -1.301,-2.07 -2.379,-3.99 -3.098,-5.74 -0.89,-2.02 -1.027,-3.81 -0.355,-5.38 0.718,-1.52 1.703,-2.91 3.093,-4.17 l 65.383,-57.04 c 1.387,-1.21 2.914,-1.97 4.485,-2.33 1.613,-0.28 3.406,-0.05 5.336,0.89 1.117,0.63 2.777,1.75 4.929,3.41 2.11,1.66 3.86,3.19 5.071,4.53 l 4.574,-3.9"
         style="fill:#1a69b0;fill-opacity:1;fill-rule:nonzero;stroke:none"
         id="path34" />
      <path
         d="m 320.723,1382.21 -4.356,-3.94 c -1.75,1.21 -3.988,2.38 -6.816,3.54 -2.91,1.12 -5.781,2.11 -8.61,2.83 -3.003,0.85 -5.875,1.25 -8.652,1.34 -2.824,0.14 -5.023,-0.35 -6.59,-1.39 -1.39,-0.98 -3.14,-2.38 -5.25,-4.08 -2.058,-1.7 -3.902,-3.32 -5.554,-4.8 l -3.59,-3.32 64.3,-71.07 c 1.258,-1.39 2.696,-2.33 4.305,-3.01 1.617,-0.63 3.41,-0.58 5.473,0.14 0.984,0.36 2.961,1.43 5.785,3.09 2.871,1.66 5.023,3.05 6.371,4.26 l 3.988,-4.44 -41.972,-37.98 -3.992,4.44 c 1.078,1.17 2.691,2.96 4.843,5.34 2.239,2.42 3.633,4.21 4.211,5.47 0.856,1.79 1.125,3.45 0.856,5.11 -0.27,1.52 -1.211,3.23 -2.692,4.97 l -64.886,71.62 -3.633,-3.27 c -1.254,-1.21 -2.914,-2.69 -4.711,-4.44 -1.836,-1.84 -3.539,-3.59 -5.11,-5.39 -1.257,-1.47 -1.925,-3.53 -2.062,-6.45 -0.133,-2.78 0,-5.65 0.449,-8.7 0.449,-3.01 1.074,-6.01 2.106,-9.01 0.945,-2.92 1.839,-5.34 2.695,-7 l -4.352,-3.94 -21.886,24.08 77.535,70.13 21.797,-24.13"
         style="fill:#1a69b0;fill-opacity:1;fill-rule:nonzero;stroke:none"
         id="path36" />
      <path
         d="m 557.766,1414.32 -35.832,80.05 c -2.602,5.6 -4.305,10.36 -5.293,14.31 -0.989,3.94 -0.848,6.99 0.449,9.1 0.898,1.43 2.734,3.18 5.336,5.24 2.601,2.11 4.621,3.55 6.051,4.22 l -2.461,5.47 -44.446,-19.87 2.422,-5.51 c 1.75,0.62 4.442,1.25 8.164,1.79 3.68,0.49 6.414,0.67 8.293,0.32 2.067,-0.45 4.262,-2.2 6.641,-5.25 2.336,-3.05 4.93,-7.76 7.805,-14.13 l 23.269,-51.97 -98.879,55.83 -31.211,-14.03 2.469,-5.43 c 2.016,0.72 4.844,1.25 8.52,1.43 3.765,0.18 6.859,-0.13 9.507,-0.98 1.926,-0.68 3.852,-1.98 5.739,-3.99 1.882,-1.98 3.363,-4.22 4.39,-6.51 l 24.129,-53.94 c 3.184,-7.13 5.11,-12.29 5.828,-15.61 0.629,-3.27 0.407,-5.97 -0.761,-8.16 -0.536,-1.12 -2.243,-2.87 -5.067,-5.25 -1.211,-0.98 -2.242,-1.79 -3.183,-2.51 -0.227,-0.05 -0.407,-0.13 -0.625,-0.27 -2.024,-0.72 -3.77,-1.07 -5.293,-1.17 -2.332,0 -4.262,0.23 -5.961,0.77 -1.618,0.58 -3.411,1.48 -5.344,2.87 l -90.852,63.41 -5.601,-3.82 c 3.449,-15.29 7.394,-32.73 11.836,-52.37 4.441,-19.69 8.386,-37.31 11.75,-53.18 0.672,-3.1 0.941,-5.66 0.851,-7.72 -0.047,-2.1 -0.582,-4.39 -1.617,-6.91 -0.762,-1.52 -1.793,-3.13 -3.316,-4.79 -1.567,-1.67 -2.871,-2.96 -3.989,-3.86 l 3.317,-5.02 37.445,25.25 -3.363,4.97 c -3.817,-2.28 -7.578,-3.9 -11.117,-4.93 -3.633,-0.9 -6.149,-0.45 -7.36,1.39 -0.539,0.81 -1.168,1.97 -1.75,3.36 -0.629,1.39 -1.254,3.32 -2.062,5.79 -0.715,2.47 -1.528,5.15 -2.332,8.16 -0.762,2.96 -1.66,6.55 -2.508,10.72 l 34.844,23.45 23.269,-16.68 c 0.492,-0.31 0.988,-0.76 1.481,-1.39 0.586,-0.5 0.898,-0.94 1.211,-1.39 0.629,-1.03 0.043,-2.74 -1.836,-5.03 -1.973,-2.28 -4.618,-4.84 -8.164,-7.53 l 3.363,-4.97 37.672,25.42 40.176,17.94 -2.422,5.51 c -1.211,-0.49 -3.903,-1.12 -8.028,-1.79 -4.121,-0.63 -7.043,-0.67 -8.742,-0.09 -2.289,0.67 -4.527,2.56 -6.906,5.61 -2.328,3.05 -4.891,7.71 -7.711,13.99 l -25.293,56.5 106.41,-59.82 z m -187.809,-44.84 -11.168,48.57 41.078,-28.44 -29.91,-20.13"
         style="fill:#1a69b0;fill-opacity:1;fill-rule:nonzero;stroke:none"
         id="path38" />
      <path
         d="m 722.297,1491.59 5.016,-35.07 -96.59,-20.09 -1.211,5.87 c 1.254,0.36 3.226,0.99 5.968,1.89 2.735,0.9 4.614,1.7 5.641,2.42 1.531,1.21 2.563,2.46 3.012,3.94 0.355,1.54 0.355,3.23 -0.047,5.25 l -7.039,33.81 -39.688,-8.34 c -1.523,-4.35 -2.961,-8.7 -4.261,-12.87 -1.25,-4.21 -2.868,-10.09 -4.84,-17.62 -0.363,-1.52 -0.719,-3 -0.899,-4.57 -0.226,-1.53 -0.226,-2.92 0,-4.17 0.629,-2.52 2.153,-4.22 4.797,-5.02 2.555,-0.86 6.235,-0.9 10.852,-0.28 l 1.211,-5.83 -43.227,-9.05 -1.258,5.87 c 1.528,0.4 3.317,1.16 5.34,2.2 1.973,1.07 3.582,2.11 4.75,3.18 1.703,1.48 3.235,3.41 4.485,5.74 1.257,2.29 2.375,4.8 3.23,7.49 5.426,16.37 10.762,32.73 15.961,49.02 5.113,16.23 10.449,33.27 15.969,51.03 -1.531,0.18 -3.676,0.13 -6.594,-0.14 -2.965,-0.31 -5.516,-0.62 -7.895,-0.98 l -1.164,5.87 102.332,21.34 5.922,-28.29 -6.234,-1.3 c -1.93,3.99 -5.156,7.98 -9.867,11.93 -4.66,3.9 -8.742,5.78 -12.106,5.56 -1.75,-0.22 -3.812,-0.45 -6.234,-0.81 -2.375,-0.36 -5.113,-0.89 -8.117,-1.57 l -17.621,-3.63 9.773,-46.64 12.328,2.56 c 4.223,0.89 7.27,1.92 9.067,3.14 1.879,1.25 3.312,2.96 4.343,5.11 0.899,1.88 1.485,4.21 1.797,7.04 0.313,2.87 0.313,5.47 0.086,7.89 l 6.195,1.3 9.594,-45.96 -6.144,-1.3 c -0.809,2.64 -1.977,5.29 -3.543,8.07 -1.617,2.73 -3.09,4.62 -4.442,5.78 -2.152,1.8 -4.347,2.74 -6.632,2.96 -2.243,0.27 -5.25,-0.04 -8.926,-0.8 l -12.328,-2.6 7.351,-35.16 c 0.711,-3.55 1.481,-6.19 2.465,-8.16 0.895,-1.93 2.199,-3.28 3.855,-4.04 1.708,-0.72 3.813,-0.99 6.329,-0.76 2.55,0.18 6.004,0.76 10.625,1.7 1.839,0.41 4.214,0.9 7.082,1.53 2.871,0.58 5.25,1.21 7.132,1.83 2.2,0.72 4.258,1.58 6.145,2.52 1.973,0.98 3.227,2.01 3.988,3.32 2.02,3.18 3.817,7.71 5.426,13.67 1.703,5.92 2.648,10.27 2.914,12.96 z m -86.817,5.33 -11.039,53.01 -6.277,-1.35 -18.297,-59.1 35.613,7.44"
         style="fill:#1a69b0;fill-opacity:1;fill-rule:nonzero;stroke:none"
         id="path40" />
      <path
         d="m 843.773,1508.45 c 2.512,-2.82 4.301,-6.06 5.383,-9.42 1.164,-3.32 1.614,-7.31 1.524,-11.74 -0.313,-10.55 -4.485,-19.16 -12.555,-25.79 -8.027,-6.68 -17.805,-9.82 -29.418,-9.46 -5.34,0.13 -10.676,1.07 -15.926,2.91 -5.285,1.84 -9.906,3.99 -13.718,6.46 l -3.86,-6.1 -6.633,0.22 v 41.08 l 6.774,-0.18 c 1.254,-5.11 2.781,-9.73 4.574,-13.9 1.703,-4.13 4.125,-8.03 7.129,-11.61 2.824,-3.46 6.183,-6.19 10.043,-8.3 3.855,-2.07 8.34,-3.14 13.5,-3.36 3.902,-0.1 7.398,0.35 10.223,1.25 3.003,0.99 5.382,2.33 7.218,4.13 1.84,1.79 3.231,3.94 4.172,6.46 0.985,2.42 1.481,5.29 1.57,8.61 0.18,4.79 -1.031,9.28 -3.722,13.49 -2.512,4.17 -6.457,7.53 -11.75,9.73 -3.582,1.61 -7.711,3.32 -12.465,5.25 -4.664,1.93 -8.695,3.68 -12.063,5.38 -6.632,3.23 -11.796,7.36 -15.421,12.42 -3.59,4.98 -5.293,11.48 -5.071,19.38 0.227,4.61 1.211,8.78 3.137,12.73 2.02,3.86 4.754,7.31 8.25,10.31 3.363,2.83 7.266,4.98 11.84,6.55 4.484,1.53 9.101,2.2 13.988,2.07 5.477,-0.18 10.363,-1.17 14.758,-3.01 4.258,-1.8 8.203,-3.9 11.793,-6.19 l 3.543,5.61 6.773,-0.18 -0.449,-39.78 -6.863,0.14 c -1.121,4.66 -2.332,9.01 -3.813,13.23 -1.39,4.21 -3.269,8.07 -5.691,11.47 -2.289,3.37 -5.16,6.06 -8.613,8.08 -3.454,2.06 -7.715,3.18 -12.735,3.27 -5.383,0.18 -10,-1.39 -13.855,-4.71 -3.86,-3.32 -5.918,-7.44 -6.008,-12.42 -0.18,-5.16 0.894,-9.51 3.227,-13.01 2.378,-3.45 5.738,-6.36 10.312,-8.65 4.082,-2.11 8.027,-3.95 11.973,-5.47 3.945,-1.57 7.715,-3.23 11.347,-4.98 3.368,-1.47 6.547,-3.27 9.684,-5.2 3.051,-1.97 5.699,-4.17 7.894,-6.77"
         style="fill:#1a69b0;fill-opacity:1;fill-rule:nonzero;stroke:none"
         id="path42" />
      <path
         d="m 966.777,1522.71 -5.781,0.99 c -0.137,2.05 -0.629,4.61 -1.527,7.62 -0.852,2.96 -1.836,5.78 -3.047,8.47 -1.254,2.87 -2.649,5.39 -4.352,7.62 -1.617,2.25 -3.32,3.69 -5.113,4.27 -1.703,0.53 -3.855,1.03 -6.504,1.57 -2.555,0.63 -4.93,1.07 -7.215,1.43 l -4.8,0.86 -16.055,-94.54 c -0.313,-1.79 -0.227,-3.58 0.359,-5.24 0.496,-1.66 1.66,-3.05 3.496,-4.26 0.852,-0.5 2.918,-1.39 6.008,-2.61 3.051,-1.21 5.52,-1.97 7.266,-2.37 l -1.032,-5.92 -55.828,9.42 1.032,5.96 c 1.57,-0.13 3.992,-0.31 7.218,-0.49 3.278,-0.27 5.563,-0.18 6.864,0.09 1.925,0.4 3.449,1.26 4.531,2.42 1.07,1.26 1.883,2.96 2.195,5.25 l 16.188,95.29 -4.801,0.8 c -1.746,0.32 -3.899,0.63 -6.41,1 -2.649,0.35 -5.114,0.53 -7.442,0.66 -1.886,0.1 -3.996,-0.66 -6.234,-2.32 -2.379,-1.62 -4.578,-3.59 -6.684,-5.79 -2.062,-2.24 -3.992,-4.58 -5.785,-7.22 -1.746,-2.56 -2.957,-4.71 -3.812,-6.46 l -5.828,0.95 5.472,32.1 103.051,-17.44 -5.43,-32.11"
         style="fill:#1a69b0;fill-opacity:1;fill-rule:nonzero;stroke:none"
         id="path44" />
      <path
         d="m 1168.21,1463.83 c -2.96,5.69 -6.99,11.12 -12.19,16.28 -5.29,5.11 -11.12,9.28 -17.53,12.51 l -46.82,23.58 -38.7,13.01 -1.89,-5.69 c 1.84,-0.81 3.55,-1.62 5.25,-2.52 1.8,-0.85 3.36,-1.84 5.02,-2.95 1.57,-1.21 2.87,-2.42 3.64,-3.64 0.85,-1.16 1.07,-2.37 0.67,-3.63 -0.41,-1.17 -1.08,-2.6 -2.02,-4.39 -0.9,-1.75 -3.05,-4.8 -6.46,-9.06 -3.49,-4.44 -10.09,-12.51 -19.87,-24.22 -9.77,-11.7 -18.38,-21.79 -25.73,-30.4 -0.86,24.62 -1.57,43.54 -2.07,56.9 -0.49,13.32 -0.85,22.92 -1.07,28.84 0,0.5 0.04,1.21 0.13,2.06 0,0.9 0.09,1.62 0.36,2.2 0.45,1.48 2.2,2.06 5.16,1.75 2.91,-0.32 6.46,-1.08 10.54,-2.15 l 1.88,5.69 -47.131,15.61 -1.84,-5.65 c 1.484,-0.59 3.008,-1.44 4.617,-2.47 1.617,-0.99 2.961,-2.24 4.129,-3.63 1.391,-1.7 2.332,-3.36 3.094,-4.93 0.582,-1.62 0.988,-3.37 1.074,-5.25 0.27,-7.58 0.856,-22.2 1.66,-43.73 0.719,-21.61 1.571,-43.99 2.289,-67.22 l 6.728,-2.19 c 14.08,16.99 27.67,33.23 40.8,48.79 13.19,15.6 22.92,27.08 29.33,34.39 1.84,2.02 3.64,3.77 5.34,5.16 1.66,1.43 3.63,2.33 5.83,2.87 1.57,0.4 3.41,0.54 5.56,0.45 0.85,-0.05 1.57,-0.14 2.29,-0.27 0.94,-0.59 1.93,-1.25 3,-2.15 1.66,-1.21 3.1,-2.65 4.26,-4.22 1.3,-1.66 1.88,-3.32 1.8,-4.98 -0.14,-1.56 -0.59,-3.27 -1.48,-5.02 l -38.84,-77.22 c -0.98,-1.79 -2.06,-3.18 -3.36,-4.17 -1.35,-0.94 -2.92,-1.35 -4.76,-1.21 -0.98,0 -2.64,0.49 -5.11,1.34 -2.46,0.9 -4.48,1.71 -5.92,2.47 l -2.64,-5.33 44.35,-22.38 c 7.35,-3.72 14.97,-6.19 22.96,-7.58 7.84,-1.3 15.74,-1.25 23.36,0.22 7.67,1.48 14.89,4.76 21.66,9.74 6.82,4.97 12.51,12.01 17.04,21.11 4.98,9.83 7.49,19.29 7.54,28.26 0.04,9.05 -1.89,17.4 -5.93,25.02 m -13.09,-23.05 c -0.98,-6.73 -3.36,-13.72 -6.91,-20.94 -3.72,-7.22 -7.66,-13.32 -11.92,-18.12 -4.22,-4.84 -8.88,-8.61 -14.22,-11.21 -4.98,-2.51 -10.31,-3.77 -16.32,-3.63 -5.92,0.18 -12.06,1.83 -18.47,5.07 -5.48,2.78 -9.15,5.73 -10.99,8.78 -1.75,3.15 -1.49,7 0.76,11.53 l 41.44,82.24 c 1.34,-0.58 3.27,-1.43 5.87,-2.69 2.69,-1.26 5.02,-2.37 7.09,-3.41 6.18,-3.09 11.21,-7.13 15.11,-12.06 3.81,-4.89 6.45,-10.22 7.84,-16.14 1.48,-6.15 1.71,-12.6 0.72,-19.42"
         style="fill:#1a69b0;fill-opacity:1;fill-rule:nonzero;stroke:none"
         id="path46" />
      <path
         d="m 1179.29,1328.94 -44.93,29.87 3.23,4.97 c 1.43,-0.71 3.32,-1.79 5.87,-3.23 2.51,-1.43 4.4,-2.24 5.56,-2.55 2.02,-0.4 3.64,-0.27 5.07,0.31 1.44,0.58 2.78,1.84 3.95,3.73 l 48.02,72.28 c 1.08,1.71 1.75,3.18 1.98,4.67 0.17,1.44 -0.41,3.18 -1.84,5.24 -1.03,1.44 -2.38,3.19 -4.26,5.07 -1.84,1.93 -3.37,3.36 -4.62,4.35 l 3.27,5.03 45.03,-29.87 -3.37,-5.03 c -1.52,0.95 -3.36,1.98 -5.56,2.92 -2.2,1.08 -4.21,1.8 -6.1,2.42 -2.1,0.58 -3.85,0.49 -5.38,-0.44 -1.3,-0.82 -2.64,-2.07 -3.63,-3.55 l -48.03,-72.29 c -0.99,-1.57 -1.61,-3.18 -1.75,-4.79 -0.09,-1.66 0.45,-3.41 1.62,-5.17 0.76,-1.02 2.11,-2.5 4.03,-4.48 1.89,-1.88 3.63,-3.41 5.16,-4.44 l -3.32,-5.02"
         style="fill:#1a69b0;fill-opacity:1;fill-rule:nonzero;stroke:none"
         id="path48" />
      <path
         d="m 1328.13,1342.3 c 0.27,-7.66 -1.04,-15.38 -3.86,-23.23 -2.91,-7.8 -7.49,-15.24 -13.67,-22.42 -6.33,-7.17 -13.1,-12.64 -20.55,-16.5 -7.39,-3.81 -14.97,-6.06 -22.69,-6.59 -7.44,-0.58 -14.79,0.22 -21.97,2.6 -7.04,2.38 -13.59,6.14 -19.51,11.3 -6.23,5.47 -10.98,11.75 -14.21,18.7 -3.28,7.04 -4.98,14.3 -5.16,21.84 -0.18,7.44 1.17,15.02 4.12,22.87 2.92,7.8 7.36,14.98 13.24,21.66 6.45,7.35 13.27,12.87 20.58,16.68 7.35,3.63 14.84,5.87 22.56,6.55 7.62,0.63 14.97,-0.18 22.19,-2.6 7.22,-2.47 13.68,-6.19 19.51,-11.21 5.96,-5.25 10.58,-11.26 13.95,-18.21 3.27,-6.82 5.06,-13.99 5.47,-21.44 m -65.56,-55.65 c 5.74,1.8 11.3,4.58 16.63,8.53 5.38,3.89 10.67,8.91 15.92,14.93 5.43,6.18 9.82,12.37 13.14,18.6 3.27,6.24 5.43,12.16 6.28,17.9 0.81,5.65 0.36,10.99 -1.39,16.1 -1.75,5.07 -4.89,9.59 -9.42,13.58 -5.07,4.44 -10.49,7.09 -16.01,7.85 -5.6,0.77 -11.26,0.23 -16.9,-1.7 -5.43,-1.89 -10.81,-4.89 -16.24,-8.97 -5.38,-4.08 -10.49,-8.88 -15.33,-14.35 -5.38,-6.14 -9.65,-12.06 -12.79,-18.03 -3.27,-5.87 -5.28,-11.75 -6.31,-17.62 -0.95,-5.74 -0.68,-11.17 1.03,-16.28 1.65,-5.2 4.84,-9.86 9.68,-14.12 4.49,-3.95 9.51,-6.42 15.07,-7.54 5.52,-1.07 10.98,-0.67 16.64,1.12"
         style="fill:#1a69b0;fill-opacity:1;fill-rule:nonzero;stroke:none"
         id="path50" />
      <path
         d="m 1347.99,1156.61 -20.31,25.11 c 4.26,12.6 7.71,23.77 10.49,33.32 2.69,9.64 5.34,19.77 7.85,30.49 l -7.76,9.55 -29.55,-23.9 c -1.48,-1.25 -2.69,-2.55 -3.41,-3.99 -0.85,-1.43 -0.9,-3.18 -0.27,-5.29 0.4,-0.94 1.21,-2.6 2.56,-4.75 1.3,-2.2 2.51,-3.99 3.59,-5.38 l -4.76,-3.77 -31.75,39.42 4.62,3.76 c 0.9,-0.98 2.29,-2.37 4.17,-4.21 1.84,-1.84 3.19,-2.96 4.17,-3.45 1.66,-0.9 3.28,-1.17 4.85,-0.9 1.61,0.36 3.22,1.21 4.93,2.56 l 67.4,54.52 c 1.48,1.21 2.65,2.51 3.54,3.91 0.81,1.43 0.85,3.13 0.18,5.24 -0.54,1.44 -1.25,3.14 -2.38,5.16 -1.07,2.01 -2.1,3.63 -2.96,4.98 l 4.62,3.76 34.8,-43.09 c 3.19,-3.9 5.74,-7.94 7.81,-12.02 1.87,-4.12 3.13,-8.3 3.67,-12.56 0.45,-4.12 -0.13,-8.16 -1.61,-12.06 -1.53,-3.9 -4.31,-7.49 -8.3,-10.67 -3.58,-2.92 -7.22,-4.89 -10.81,-6.01 -3.58,-1.16 -7.35,-1.48 -11.08,-0.94 -3.49,0.4 -7.03,1.48 -10.62,3.09 -3.68,1.71 -7.27,3.81 -10.94,6.32 -2.38,-9.55 -4.4,-17.48 -6.1,-23.94 -1.71,-6.37 -3.72,-14.22 -6.1,-23.45 -1.08,-4.04 -1.62,-7.36 -1.62,-9.87 0,-2.56 0.28,-4.98 0.72,-7.17 0.36,-1.58 1.03,-3.33 2.11,-5.3 1.08,-1.93 2.07,-3.49 2.92,-4.7 z m 41.62,90.72 c 5.6,4.57 8.74,9.82 9.46,15.74 0.63,5.92 -1.39,11.79 -6.23,17.66 l -8.97,11.22 -39.96,-32.29 6.91,-8.66 c 4.98,-6.01 10.99,-9.5 18.07,-10.36 7.13,-0.89 13.99,1.35 20.72,6.69"
         style="fill:#1a69b0;fill-opacity:1;fill-rule:nonzero;stroke:none"
         id="path52" />
      <path
         d="m 1533.11,1045.13 c -0.95,-0.36 -3.01,-0.72 -6.06,-1.12 -3.13,-0.37 -6.1,-0.59 -9.06,-0.59 l -80.8,-0.35 71.07,64.88 -13.58,32.74 -23.05,38.16 -5.12,-3.05 c 0.81,-1.79 1.71,-3.54 2.43,-5.38 0.71,-1.75 1.38,-3.59 1.79,-5.47 0.49,-1.98 0.63,-3.63 0.49,-5.16 -0.13,-1.34 -0.76,-2.42 -1.93,-3.09 -0.98,-0.72 -2.46,-1.35 -4.35,-2.07 -1.83,-0.8 -5.38,-1.7 -10.76,-2.77 -5.56,-1.04 -15.87,-2.88 -30.85,-5.43 -15.07,-2.6 -28.16,-4.71 -39.24,-6.42 15.25,19.24 27.04,34.13 35.34,44.54 8.25,10.49 14.17,18.02 17.85,22.64 0.36,0.45 0.85,0.94 1.43,1.57 0.67,0.58 1.21,1.12 1.75,1.44 1.39,0.76 3.05,0.09 5.07,-2.07 2.01,-2.15 4.26,-4.97 6.59,-8.43 l 5.11,3.05 -25.6,42.47 -5.12,-3.05 c 0.72,-1.39 1.35,-3.05 1.93,-4.89 0.54,-1.84 0.81,-3.68 0.76,-5.47 -0.09,-2.2 -0.35,-4.13 -0.89,-5.79 -0.63,-1.65 -1.4,-3.18 -2.56,-4.61 -4.66,-6.02 -13.77,-17.45 -27.22,-34.31 -13.36,-16.99 -27.31,-34.48 -41.84,-52.69 l 3.63,-6.01 c 21.8,3.77 42.65,7.31 62.79,10.63 20.13,3.27 35.02,5.65 44.61,7.04 2.78,0.36 5.2,0.54 7.4,0.54 2.2,-0.09 4.31,-0.63 6.28,-1.62 1.44,-0.76 2.96,-1.84 4.53,-3.31 1.35,-1.26 2.33,-2.38 3.09,-3.46 0.14,-0.63 0.23,-1.21 0.32,-1.84 0.22,-2.64 0,-5.06 -0.81,-7.26 -0.72,-2.02 -2.02,-3.82 -3.81,-5.34 -1.8,-1.61 -4.26,-3.09 -7.63,-4.39 l -56.99,-22.47 c -7.13,-2.83 -12.38,-4.53 -15.65,-5.02 -3.37,-0.49 -6.05,-0.09 -8.25,1.12 -1.71,0.94 -3.41,2.65 -4.98,5.02 -1.61,2.34 -2.96,4.67 -4.08,6.95 l -5.61,-2.19 17.81,-45.03 5.51,2.16 c -0.4,1.12 -0.8,3.71 -1.21,7.71 -0.4,3.99 -0.31,6.82 0.32,8.43 0.76,2.24 2.73,4.39 5.78,6.55 3.05,2.11 7.76,4.48 14.22,6.99 l 66.5,26.28 0.45,-1.03 -82.69,-74.48 1.57,-3.91 109.95,-0.58 0.49,-1.26 -81.12,-31.93 c -1.92,-0.72 -3.72,-0.98 -5.24,-0.72 -1.58,0.23 -3.19,0.95 -4.85,2.2 -0.98,0.86 -2.19,2.56 -3.63,5.3 -1.39,2.65 -2.47,4.84 -3.23,6.59 l -5.56,-2.2 19.42,-49.237 5.61,2.195 c -0.59,1.395 -1.08,3.41 -1.62,6.055 -0.45,2.558 -0.63,4.441 -0.45,5.605 0.27,2.11 0.81,3.77 1.89,4.848 0.98,1.16 2.42,2.059 4.21,2.82 l 80.4,31.664 c 1.75,0.72 3.46,1.03 5.16,0.98 1.7,-0.09 3.23,-0.9 4.58,-2.37 0.76,-0.94 1.84,-2.47 3.22,-4.57 1.21,-2.11 2.25,-3.91 2.83,-5.34 l 5.61,2.24 -14.35,36.37"
         style="fill:#1a69b0;fill-opacity:1;fill-rule:nonzero;stroke:none"
         id="path54" />
      <path
         d="m 1576.51,832.125 -5.47,41.789 -5.96,-0.805 c 0.09,-2.019 0.09,-3.945 0.09,-5.879 -0.04,-1.925 -0.22,-3.894 -0.54,-5.781 -0.31,-1.972 -0.85,-3.59 -1.61,-4.801 -0.68,-1.296 -1.71,-1.972 -2.96,-2.152 -1.26,-0.176 -2.87,-0.226 -4.85,-0.176 -1.97,0.086 -5.65,0.625 -10.98,1.836 -5.52,1.168 -15.66,3.633 -30.45,7.309 -14.8,3.676 -27.63,7.043 -38.57,9.914 21.75,11.523 38.48,20.402 50.27,26.68 11.84,6.234 20.27,10.765 25.47,13.543 0.45,0.269 1.08,0.539 1.93,0.851 0.81,0.317 1.52,0.492 2.15,0.586 1.53,0.219 2.78,-1.031 3.77,-3.902 0.99,-2.735 1.88,-6.235 2.69,-10.407 l 5.92,0.762 -6.41,49.196 -5.97,-0.719 c 0.1,-1.617 0,-3.364 -0.18,-5.25 -0.27,-1.922 -0.8,-3.676 -1.52,-5.332 -0.9,-1.969 -1.97,-3.629 -3.14,-4.891 -1.12,-1.344 -2.55,-2.461 -4.21,-3.316 -6.64,-3.543 -19.55,-10.45 -38.62,-20.535 -19.1,-10.137 -38.87,-20.633 -59.46,-31.481 l 0.9,-6.953 c 21.48,-5.293 42.02,-10.363 61.84,-15.426 19.78,-5.023 34.35,-8.832 43.68,-11.39 2.64,-0.762 4.98,-1.614 6.99,-2.512 1.98,-0.985 3.68,-2.289 5.07,-3.992 1.03,-1.254 2.02,-2.871 2.82,-4.844 0.68,-1.524 1.08,-2.734 1.4,-3.945 -0.41,-1.75 -1.08,-3.766 -2.06,-6.141 -1.4,-3.453 -3.06,-6.145 -4.94,-8.16 -1.44,-1.481 -3.5,-2.649 -6.06,-3.453 -2.69,-0.856 -5.24,-1.258 -7.84,-1.168 l -59.06,1.48 c -7.8,0.133 -13.36,0.625 -16.55,1.481 -3.23,0.761 -5.56,2.242 -7.08,4.168 -0.72,0.894 -1.62,3.226 -2.51,6.863 -0.9,3.629 -1.39,6.187 -1.44,7.664 l -6.05,0.137 -1.21,-49.102 6.01,-0.094 c 0.08,1.211 0.76,3.95 1.92,7.942 1.17,4.039 2.38,6.679 3.59,7.933 1.7,1.746 4.31,3.051 8.07,3.813 3.77,0.762 9.11,1.125 16.06,0.941 l 61.79,-1.476 -99.82,-70.27 -0.18,-7.355 87.76,-2.157 c 6.1,-0.136 11.12,-0.578 15.15,-1.386 3.95,-0.813 6.69,-2.246 7.99,-4.356 0.85,-1.386 1.7,-3.761 2.51,-7.031 0.71,-3.281 1.12,-5.742 1.12,-7.266 l 6.01,-0.226 1.17,48.793 -5.97,0.133 c -0.23,-1.844 -0.76,-4.532 -1.88,-8.114 -1.12,-3.507 -2.25,-6.101 -3.32,-7.59 -1.3,-1.746 -3.77,-2.957 -7.63,-3.757 -3.72,-0.813 -9.1,-1.125 -16.05,-0.989 l -57.04,1.438 93.05,65.105 0.4,34.223"
         style="fill:#1a69b0;fill-opacity:1;fill-rule:nonzero;stroke:none"
         id="path56" />
      <path
         d="m 1442.84,653.375 8.61,53.27 5.91,-0.977 c -0.13,-1.484 -0.31,-3.684 -0.58,-6.555 -0.18,-2.918 -0.18,-4.929 0.05,-6.14 0.49,-1.973 1.3,-3.457 2.37,-4.532 1.03,-0.937 2.78,-1.699 4.98,-2.058 l 85.74,-13.86 c 1.93,-0.312 3.63,-0.222 4.98,0.086 1.43,0.403 2.78,1.75 3.99,3.86 0.99,1.523 1.93,3.543 2.96,5.965 0.94,2.461 1.62,4.433 2.02,6.007 l 5.92,-0.898 -8.66,-53.32 -5.87,0.996 c 0.22,1.699 0.31,3.758 0.36,6.269 0.04,2.473 -0.05,4.617 -0.36,6.465 -0.36,2.195 -1.21,3.762 -2.55,4.797 -1.44,0.934 -3.01,1.57 -4.8,1.883 l -85.65,13.855 c -1.84,0.266 -3.55,0.129 -5.12,-0.406 -1.57,-0.625 -2.87,-1.789 -4.03,-3.625 -0.63,-1.121 -1.48,-2.922 -2.38,-5.43 -0.99,-2.597 -1.62,-4.804 -1.98,-6.64 l -5.91,0.988"
         style="fill:#1a69b0;fill-opacity:1;fill-rule:nonzero;stroke:none"
         id="path58" />
      <path
         d="m 1520.82,508.391 c 0.36,1.441 0.58,3.281 0.58,5.429 0,2.11 -0.13,3.95 -0.63,5.469 -0.54,2.199 -1.57,4.082 -3.09,5.742 -1.39,1.66 -3.18,3.321 -5.29,5.11 -7.54,6.191 -19.37,15.48 -35.38,28.078 -16.1,12.59 -32.87,25.601 -50.36,39.011 l 2.02,6.778 c 23.22,1.648 45.56,3.222 67.04,4.746 21.57,1.57 36.05,2.644 43.67,3.281 1.89,0.09 3.59,0.528 5.16,1.301 1.57,0.672 3.23,1.746 4.89,3.219 1.3,1.211 2.51,2.609 3.5,4.308 0.89,1.61 1.75,3.145 2.28,4.668 l 5.79,-1.758 -13.95,-47.574 -5.78,1.703 c 0.89,4.172 1.57,7.629 1.79,10.625 0.23,2.922 -0.45,4.621 -1.97,5.118 -0.63,0.226 -1.3,0.226 -2.15,0.265 -0.9,0.051 -1.62,0.051 -2.16,0 -5.87,-0.488 -15.51,-1.16 -28.79,-2.109 -13.27,-0.977 -32.15,-2.375 -56.72,-4.168 8.79,-6.996 19.23,-15.192 31.3,-24.574 12.01,-9.289 20.35,-15.688 24.93,-18.957 4.35,-3.243 7.49,-5.301 9.28,-6.204 1.75,-0.808 3.28,-1.378 4.49,-1.699 1.25,-0.449 2.42,-0.179 3.58,0.723 1.17,0.797 2.29,2.148 3.46,3.769 1.07,1.61 1.97,3.36 2.87,5.098 0.71,1.711 1.53,3.5 2.29,5.352 l 5.69,-1.711 -12.56,-42.739 -5.78,1.7"
         style="fill:#1a69b0;fill-opacity:1;fill-rule:nonzero;stroke:none"
         id="path60" />
      <path
         d="m 1402.7,441.898 -30.99,17.082 42.2,90.051 5.43,-2.562 c -0.63,-1.52 -1.35,-3.668 -2.29,-6.367 -0.8,-2.692 -1.21,-4.532 -1.25,-5.473 0.04,-1.969 0.49,-3.629 1.43,-4.797 0.85,-1.211 2.33,-2.293 4.22,-3.191 l 77.93,-36.539 c 1.75,-0.813 3.36,-1.172 4.94,-1.262 1.52,-0.039 3.18,0.719 4.75,2.019 1.35,1.129 2.82,2.7 4.4,4.762 1.65,2.098 2.73,3.809 3.54,5.07 l 5.42,-2.472 -39.32,-84.039 -26.15,12.289 2.69,5.742 c 4.31,-0.762 9.51,-0.551 15.43,0.848 5.96,1.3 9.86,3.41 11.66,6.281 0.94,1.469 1.97,3.32 3.09,5.422 1.12,2.16 2.38,4.718 3.68,7.488 l 8.02,17 -43.18,20.309 -5.69,-12.239 c -1.84,-4 -2.87,-6.988 -2.87,-9.191 -0.18,-2.16 0.31,-4.359 1.39,-6.508 0.94,-1.789 2.51,-3.723 4.62,-5.601 2.11,-1.969 4.17,-3.629 6.28,-4.93 l -2.7,-5.738 -42.55,19.91 2.73,5.777 c 2.47,-0.988 5.38,-1.609 8.48,-2.008 3.14,-0.32 5.56,-0.32 7.22,0.039 2.73,0.621 4.93,1.879 6.41,3.539 1.62,1.801 3.14,4.313 4.71,7.629 l 5.74,12.203 -32.51,15.239 c -3.28,1.519 -5.92,2.422 -8.03,2.91 -2.15,0.449 -4.04,0.269 -5.56,-0.711 -1.62,-0.809 -3.05,-2.34 -4.39,-4.488 -1.35,-2.192 -3.06,-5.379 -5.03,-9.602 -0.8,-1.66 -1.83,-3.891 -3.14,-6.68 -1.25,-2.73 -2.28,-5.109 -2.91,-7.078 -0.76,-2.019 -1.3,-4.172 -1.7,-6.5 -0.5,-2.332 -0.45,-4.133 0.09,-5.48 1.29,-3.442 3.85,-7.66 7.66,-12.602 3.77,-4.89 6.68,-8.301 8.66,-10.039 l -2.56,-5.512"
         style="fill:#1a69b0;fill-opacity:1;fill-rule:nonzero;stroke:none"
         id="path62" />
      <path
         d="m 1303.28,357.898 18.25,26.633 c 13.28,-0.402 24.9,-0.531 34.93,-0.402 9.97,0.141 20.45,0.59 31.44,1.262 l 6.91,10.129 -31.35,21.441 c -1.61,1.121 -3.23,1.84 -4.84,2.148 -1.61,0.371 -3.23,-0.078 -5.02,-1.289 -0.94,-0.679 -2.2,-1.89 -3.95,-3.73 -1.7,-1.981 -3.09,-3.641 -4.12,-5.02 l -4.89,3.371 28.52,41.829 4.98,-3.372 c -0.68,-1.16 -1.57,-2.91 -2.78,-5.148 -1.21,-2.328 -1.98,-4.039 -2.2,-5.059 -0.27,-1.8 -0.09,-3.461 0.54,-4.851 0.8,-1.481 2.06,-2.731 3.9,-4.039 l 71.52,-48.93 c 1.62,-1.07 3.23,-1.832 4.8,-2.23 1.57,-0.403 3.32,0.05 5.11,1.347 1.22,0.883 2.61,2.141 4.26,3.723 1.66,1.609 2.92,3 3.9,4.301 l 4.9,-3.403 -31.18,-45.711 c -2.86,-4.168 -6,-7.75 -9.37,-10.847 -3.4,-3.09 -6.99,-5.473 -10.89,-7.129 -3.86,-1.66 -7.94,-2.231 -12.07,-1.922 -4.21,0.309 -8.33,1.922 -12.6,4.84 -3.85,2.601 -6.77,5.469 -8.92,8.66 -2.15,3.18 -3.5,6.629 -4.04,10.352 -0.58,3.449 -0.58,7.136 -0.04,11.027 0.49,3.953 1.48,8.082 2.87,12.293 -9.82,-0.492 -18.03,-0.801 -24.71,-1.031 -6.54,-0.18 -14.66,-0.5 -24.22,-0.903 -4.17,-0.039 -7.44,-0.527 -9.95,-1.258 -2.42,-0.71 -4.66,-1.699 -6.55,-2.679 -1.48,-0.813 -2.91,-2.02 -4.53,-3.602 -1.52,-1.648 -2.82,-2.988 -3.63,-4.168 z m 98.84,-13.718 c 6.01,-4.078 11.88,-5.649 17.71,-4.532 5.92,0.942 10.99,4.622 15.29,10.942 l 8.03,11.851 -42.33,29.008 -6.24,-9.148 c -4.39,-6.371 -6.01,-13.192 -4.79,-20.231 1.16,-7.121 5.2,-13.09 12.33,-17.89"
         style="fill:#1a69b0;fill-opacity:1;fill-rule:nonzero;stroke:none"
         id="path64" />
      <path
         d="m 1283.78,260.449 c -3.77,0.192 -7.27,0.949 -10.54,2.391 -3.27,1.519 -6.46,3.719 -9.64,6.898 -7.67,7.274 -11.21,16.192 -10.72,26.59 0.49,10.363 4.8,19.781 12.82,28.172 3.82,3.77 8.03,7.082 13.01,9.719 4.89,2.742 9.55,4.621 13.9,5.793 l -1.88,6.91 4.75,4.84 30.32,-27.711 -4.72,-4.942 c -4.66,2.602 -9.14,4.582 -13.36,6.012 -4.26,1.488 -8.78,2.367 -13.4,2.598 -4.45,0.222 -8.75,-0.399 -12.87,-1.879 -4.13,-1.391 -7.99,-3.988 -11.62,-7.711 -2.64,-2.828 -4.62,-5.609 -5.92,-8.438 -1.34,-2.73 -1.97,-5.382 -1.84,-8.031 0.09,-2.59 0.72,-5.019 1.89,-7.441 1.25,-2.328 3.05,-4.699 5.38,-6.949 3.4,-3.309 7.62,-5.508 12.42,-6.411 4.84,-0.898 9.95,-0.218 15.11,2.153 3.63,1.57 7.76,3.5 12.29,5.66 4.57,2.187 8.61,3.988 12.1,5.328 6.96,2.73 13.41,3.719 19.56,3.051 6.09,-0.813 12.1,-3.852 17.8,-9.371 3.23,-3.231 5.7,-6.821 7.22,-10.899 1.52,-4.121 2.15,-8.39 1.97,-13.051 -0.09,-4.39 -1.12,-8.75 -3,-13.089 -1.93,-4.403 -4.58,-8.301 -7.94,-11.801 -3.81,-3.942 -7.8,-6.899 -12.1,-8.84 -4.27,-1.969 -8.44,-3.488 -12.52,-4.52 l 1.75,-6.449 -4.8,-4.851 -29.05,27.129 4.79,4.929 c 4.13,-2.277 8.25,-4.297 12.34,-6.097 4.08,-1.84 8.15,-2.911 12.33,-3.532 4.08,-0.449 7.98,-0.238 11.75,0.93 3.85,1.16 7.53,3.641 10.98,7.223 3.68,3.859 5.7,8.34 5.83,13.457 0.23,5.062 -1.52,9.32 -5.06,12.781 -3.73,3.629 -7.68,5.73 -11.8,6.371 -4.17,0.66 -8.61,0.039 -13.41,-1.762 -4.3,-1.519 -8.29,-3.269 -12.1,-5.16 -3.82,-1.867 -7.58,-3.578 -11.35,-5.097 -3.32,-1.391 -6.77,-2.602 -10.31,-3.551 -3.54,-0.992 -7,-1.391 -10.36,-1.352"
         style="fill:#1a69b0;fill-opacity:1;fill-rule:nonzero;stroke:none"
         id="path66" />
      <path
         d="m 1195.57,257.859 41.43,34.61 3.91,-4.571 c -1.08,-1.078 -2.65,-2.636 -4.71,-4.617 -2.11,-2.019 -3.46,-3.59 -4.08,-4.699 -0.94,-1.762 -1.35,-3.371 -1.12,-4.941 0.08,-1.43 0.89,-3.09 2.37,-4.801 l 55.7,-66.629 c 1.3,-1.531 2.56,-2.52 3.85,-3.18 1.35,-0.59 3.19,-0.551 5.57,0.258 1.7,0.59 3.76,1.441 6.09,2.652 2.38,1.161 4.22,2.278 5.52,3.27 l 3.81,-4.621 -41.34,-34.66 -3.86,4.57 c 1.26,1.16 2.78,2.691 4.4,4.531 1.66,1.891 2.91,3.551 3.94,5.11 1.21,1.929 1.61,3.679 1.21,5.25 -0.45,1.648 -1.21,3.23 -2.42,4.66 l -55.69,66.508 c -1.21,1.429 -2.52,2.472 -4.13,3 -1.57,0.632 -3.32,0.543 -5.39,-0.039 -1.16,-0.45 -2.95,-1.301 -5.33,-2.508 -2.42,-1.403 -4.35,-2.614 -5.83,-3.731 l -3.9,4.578"
         style="fill:#1a69b0;fill-opacity:1;fill-rule:nonzero;stroke:none"
         id="path68" />
      <path
         d="m 1244.4,183.602 -5.02,-3.243 c 0.67,-1.777 1.17,-4.3 1.62,-7.347 0.49,-3.133 0.76,-6.192 0.71,-9.242 0,-3 -0.35,-5.872 -0.94,-8.7 -0.54,-2.769 -1.61,-4.738 -3,-5.961 -1.79,-1.531 -3.81,-3 -5.92,-4.527 -2.15,-1.48 -3.95,-2.691 -5.34,-3.684 l -4.12,-2.636 -52.87,80.847 c -1.31,1.93 -1.89,3.731 -1.89,5.391 -0.09,1.609 0.5,3.27 1.66,4.879 0.72,1.121 2.38,2.652 4.89,4.75 2.51,2.031 4.44,3.551 5.69,4.492 l -3.22,5.02 -47.4,-30.993 -36.24,-19.546 2.61,-5.422 c 4.12,1.75 8.11,2.871 11.83,3.269 3.77,0.403 6.1,-0.308 7.04,-2.367 0.41,-0.902 0.85,-2.023 1.21,-3.512 0.45,-1.519 0.81,-3.531 1.17,-6 0.45,-2.648 0.81,-5.429 1.17,-8.519 0.35,-3.063 0.71,-6.692 1.03,-10.903 l -37.85,-18.339 -20.63,19.871 c -0.45,0.441 -0.85,0.929 -1.39,1.519 -0.4,0.621 -0.71,1.16 -0.89,1.61 -0.55,1.121 0.26,2.703 2.55,4.711 2.24,2.07 5.34,4.128 9.1,6.332 l -2.6,5.418 -44.84,-21.75 -50.137,-14.122 1.887,-5.66 c 1.746,0.551 4.253,0.953 7.531,1.403 3.273,0.359 5.469,0.539 6.551,0.449 2.101,-0.192 3.761,-0.899 5.015,-2.11 1.305,-1.21 2.199,-2.699 2.785,-4.398 l 30.268,-91.0312 -4.62,-1.5703 c -2.15,-0.7188 -4.53,-1.4297 -7.08,-2.1485 -2.56,-0.6836 -4.67,-1.2617 -6.42,-1.5703 -1.88,-0.3203 -4.03,0.0781 -6.59,1.2891 -2.511,1.2578 -4.933,2.789 -7.355,4.7187 -2.328,1.8399 -4.621,3.8594 -6.722,6.0118 -2.153,2.2773 -3.817,4.3007 -4.938,6.0468 l -5.511,-1.8281 10.312,-30.8086 99.104,32.9883 -10.31,30.7695 -5.61,-1.789 c 0.18,-1.9688 0,-4.4493 -0.36,-7.5821 -0.22,-3.1289 -0.85,-6.0976 -1.66,-9.0586 -0.76,-2.9101 -1.83,-5.6992 -3.04,-8.2109 -1.31,-2.4688 -2.74,-4.168 -4.49,-5.0195 -2.16,-0.9805 -4.44,-1.9297 -6.91,-2.7774 -2.42,-0.9804 -4.43,-1.7031 -6.05,-2.2422 l -4.66,-1.5703 -30.5,91.6988 c -0.72,2.204 -0.94,4.082 -0.53,5.661 0.35,1.613 1.39,3.043 2.82,4.3 1.08,0.903 6.28,1.661 9.82,2.743 1.3,0.578 3.01,1.07 5.11,1.468 2.11,0.45 3.9,0.641 5.43,0.41 2.28,-0.32 4.17,-0.859 5.74,-1.57 1.57,-0.808 3.18,-1.93 4.93,-3.578 l 80.95,-75.6601 6,2.9062 c -1.25,15.6602 -2.6,33.5119 -4.26,53.6019 -1.57,19.949 -2.96,38.109 -4.08,54.25 -0.27,3.191 -0.09,5.75 0.23,7.808 0.45,2.024 1.29,6.192 2.69,8.563 0.89,1.437 2.91,4.437 4.62,5.918 1.56,0.902 3.85,1.972 6.94,3.14 3.1,1.25 5.16,1.93 6.24,2.2 2.1,0.312 3.94,0.132 5.42,-0.758 1.53,-0.86 2.74,-2.063 3.77,-3.68 l 52.47,-80.23 -4.13,-2.68 c -1.83,-1.211 -3.99,-2.52 -6.28,-3.859 -2.28,-1.403 -4.21,-2.383 -5.78,-3.231 -1.75,-0.723 -3.9,-0.902 -6.68,-0.359 -2.78,0.527 -5.56,1.429 -8.39,2.687 -2.69,1.16 -5.33,2.563 -8.02,4.172 -2.56,1.57 -4.71,3.098 -6.24,4.527 l -4.89,-3.179 17.81,-27.2307 87.44,57.1837 z m -157.12,-47.723 32.42,15.703 4.12,-49.691 -36.54,33.988"
         style="fill:#1a69b0;fill-opacity:1;fill-rule:nonzero;stroke:none"
         id="path70" />
      <path
         d="m 1025.07,153.641 c -1.43,-0.719 3.14,0.941 0,0"
         style="fill:#1a69b0;fill-opacity:1;fill-rule:nonzero;stroke:none"
         id="path72" />
      <path
         d="m 896.641,128.031 52.828,10.86 1.254,-5.832 c -1.481,-0.45 -3.582,-1.079 -6.368,-1.848 -2.777,-0.801 -4.664,-1.563 -5.781,-2.191 -1.617,-1.122 -2.781,-2.379 -3.32,-3.809 -0.586,-1.441 -0.625,-3.231 -0.18,-5.422 l 17.399,-85.0273 c 0.402,-1.9726 1.035,-3.4531 1.929,-4.6601 0.809,-1.1719 2.461,-1.9727 5.024,-2.3828 1.703,-0.3086 3.941,-0.5391 6.59,-0.5899 2.558,-0.0391 4.707,0 6.367,0.2813 l 1.211,-5.9219 -52.914,-10.8086 -1.168,5.8789 c 1.711,0.4023 3.769,0.9805 6.011,1.7812 2.29,0.8985 4.211,1.8008 5.918,2.6993 1.926,1.1211 3.137,2.4609 3.543,4.1211 0.407,1.5703 0.45,3.3203 0.09,5.1211 l -17.441,85.0707 c -0.363,1.738 -1.125,3.269 -2.199,4.527 -1.121,1.25 -2.739,2.062 -4.844,2.512 -1.164,0.168 -3.141,0.347 -5.871,0.308 -2.739,0 -5.114,-0.179 -6.867,-0.539 l -1.211,5.871"
         style="fill:#1a69b0;fill-opacity:1;fill-rule:nonzero;stroke:none"
         id="path74" />
      <path
         d="m 820.453,64.7617 c -2.777,2.6094 -4.887,5.4688 -6.367,8.6485 -1.566,3.2812 -2.508,7.0898 -2.914,11.539 -0.984,10.5703 2.152,19.5818 9.281,27.1208 7.176,7.621 16.594,11.84 28.121,12.91 5.332,0.54 10.711,0.141 16.188,-1.031 5.511,-1.16 10.312,-2.769 14.347,-4.75 l 3.094,6.512 6.684,0.57 4.886,-40.7615 -6.769,-0.6211 c -1.887,4.9336 -3.945,9.2813 -6.188,13.2305 -2.242,3.8511 -5.113,7.4411 -8.433,10.7111 -3.274,3.051 -6.953,5.34 -10.988,6.949 -4.032,1.621 -8.7,2.242 -13.856,1.699 -3.902,-0.359 -7.172,-1.117 -10.043,-2.418 -2.734,-1.25 -4.976,-2.91 -6.594,-4.929 -1.617,-1.969 -2.734,-4.309 -3.406,-6.86 -0.582,-2.601 -0.808,-5.5115 -0.492,-8.781 0.445,-4.7617 2.152,-9.0703 5.242,-12.9687 3.051,-3.8516 7.445,-6.6329 12.871,-8.293 3.813,-1.1289 8.113,-2.3399 13.008,-3.7188 4.844,-1.2578 9.102,-2.5586 12.645,-3.8593 6.996,-2.3789 12.554,-5.8789 16.82,-10.4493 4.121,-4.6211 6.59,-10.7617 7.258,-18.6992 0.449,-4.5703 -0.086,-8.832 -1.524,-12.9101 -1.566,-4.1328 -3.898,-7.8907 -6.996,-11.2618 -3.004,-3.23042 -6.68,-5.87105 -10.898,-7.94136 -4.301,-2.0586 -8.832,-3.31641 -13.629,-3.718752 -5.516,-0.488282 -10.492,-0.089844 -15.024,1.210942 -4.48,1.30078 -8.609,2.82031 -12.422,4.75 L 831.395,0.589844 824.719,0 l -4.352,39.5508 6.86,0.6406 c 1.613,-4.4414 3.41,-8.7031 5.293,-12.7031 1.972,-3.9883 4.3,-7.5274 7.128,-10.668 2.692,-3.0508 5.875,-5.3789 9.508,-6.94921 3.586,-1.69921 7.985,-2.24218 13,-1.79296 5.34,0.49218 9.735,2.60157 13.141,6.42187 3.453,3.7617 5.023,8.0586 4.574,12.9883 -0.445,5.2109 -2.105,9.332 -4.797,12.5117 -2.691,3.2383 -6.457,5.6602 -11.301,7.4102 -4.261,1.6093 -8.429,2.8711 -12.511,4.0312 -4.078,0.9883 -8.074,2.25 -11.926,3.5078 -3.5,1.1094 -6.91,2.5391 -10.18,4.0703 -3.226,1.6211 -6.148,3.5 -8.703,5.7422"
         style="fill:#1a69b0;fill-opacity:1;fill-rule:nonzero;stroke:none"
         id="path76" />
      <path
         d="m 960.723,1181.81 c 9.687,-9.68 15.699,6.77 18.121,15.38 -9.598,10.36 -18.121,-6.14 -18.121,-15.38"
         style="fill:#1a69b0;fill-opacity:1;fill-rule:nonzero;stroke:none"
         id="path78" />
      <path
         d="m 520.23,1083.29 c 1.118,1.39 2.329,2.73 3.317,4.21 0.445,0.81 1.031,1.98 1.84,2.79 -0.043,0.31 -0.043,0.62 -0.094,0.98 -1.836,2.11 -6.008,3.05 -9.684,2.51 -0.984,-0.44 -1.972,-0.85 -2.957,-1.21 -0.632,-0.18 -1.168,-0.49 -1.797,-0.76 -1.523,-1.35 -2.332,-3.23 -1.835,-5.92 2.195,-1.8 7.257,-3.32 11.21,-2.6"
         style="fill:#1a69b0;fill-opacity:1;fill-rule:nonzero;stroke:none"
         id="path80" />
      <path
         d="m 303.547,1016.16 c -2.824,16.27 -10.539,27.57 -13.637,43.45 3.945,4.12 20.852,22.69 5.473,22.65 -10.672,0 -23.992,-17.98 -22.649,-29.87 1.618,-14.66 13.68,-41.52 30.813,-36.23"
         style="fill:#1a69b0;fill-opacity:1;fill-rule:nonzero;stroke:none"
         id="path82" />
      <path
         d="m 517.266,1011.9 c -1.836,2.46 -4.301,4.03 -7.078,5.07 -8.348,7.39 -20.856,9.91 -31.262,12.87 h -0.043 c -1.973,0.76 -3.945,1.52 -5.785,2.64 -0.539,0.32 -1.438,0.32 -2.332,0.18 -0.942,0.72 -2.016,1.35 -3.407,1.62 h -1.793 c 1.879,-9.87 5.512,-16.51 11.747,-20.81 6.187,-4.31 12.597,-3.54 20.046,-4.13 4.352,0.63 8.746,0.5 13.09,-0.18 0.094,-0.13 0.274,-0.27 0.406,-0.36 1.883,-2.6 8.571,0.14 6.411,3.1"
         style="fill:#1a69b0;fill-opacity:1;fill-rule:nonzero;stroke:none"
         id="path84" />
      <path
         d="m 803.23,340.809 c -21.968,0.543 -17.578,27.179 -19.011,47.992 -12.016,0.539 -16.004,-13.59 -19.016,-24.442 -2.281,-8.339 -6.226,-19.277 -7.305,-27.179 -3.363,-27.801 14.079,-40.899 39.868,-38.032 27.039,3.063 70.714,28.481 49.824,60.684 -22.563,6.898 -26.059,-19.422 -44.36,-19.023"
         style="fill:#1a69b0;fill-opacity:1;fill-rule:nonzero;stroke:none"
         id="path86" />
      <path
         d="m 778.93,991.762 h 9.64 c 24.938,-19.684 33.008,-60.899 35.871,-99.731 -9.187,12.016 -10.804,33.633 -16.632,55.965 -3.856,14.707 -10.18,36.41 -26.278,26.234 -0.269,-8.386 -1.976,-13.812 -0.851,-20.945 1.39,-8.832 9.55,-14.75 10.492,-21.879 0.984,-7.222 -4.754,-11.527 -6.145,-18.433 -2.687,-13.586 3.098,-25.832 3.543,-40.223 14.618,-3.098 43.586,9.641 35.871,-13.051 -13.312,2.781 -25.285,12.199 -33.269,-1.797 10.941,0.496 19.957,-1.07 23.633,-7.843 13.633,12.644 16.906,-10.45 27.129,-15.789 6.097,-3.18 15.07,-2.016 21.839,-6.094 3.411,-2.063 4.395,-5.516 6.997,-7.895 6.5,-5.875 16.769,-9.324 17.488,-17.488 -5.563,-4.305 -9.684,0.715 -12.199,4.348 -12.016,4.984 -21.391,12.511 -36.723,13.996 -0.629,-13.68 -6.684,-31.438 0,-41.934 3.359,-0.805 8.113,-1.566 11.344,0 -0.45,7.36 1.883,19.063 0,27.938 7.843,-1.383 3.59,-10.536 5.199,-16.59 1.617,-5.918 7.043,-8.746 9.644,-12.242 6.903,2.511 -0.269,13.722 5.247,17.488 3.41,-0.133 3.585,-3.406 3.5,-6.996 5.601,-3.184 9.636,-7.938 12.238,-13.992 3.722,-5.606 11.972,-6.719 12.293,-15.743 -6.91,0.321 -10.051,5.84 -16.645,7.852 -14.48,4.48 -36.504,-1.613 -36.726,-12.246 -0.262,-11.426 35.117,-18.516 46.328,-20.125 10.043,-1.399 18.34,-0.453 23.633,5.281 -4.489,21.121 -17.942,34.266 -14.844,59.469 1.117,9.461 6.902,17.129 6.992,26.277 0.094,18.832 -17.578,30.27 -14.934,52.469 2.692,9.234 17.625,4.527 28.032,7.844 10.449,3.367 11.836,13.859 20.984,16.636 11.973,-3.183 20.852,4.04 29.774,0 v -6.097 c -10.625,-5.067 -17.082,-11.074 -23.629,-19.235 -3.004,-3.812 -5.332,-10.5 -11.387,-11.39 0.578,12.508 5.469,20.804 12.281,27.082 -10.805,-5.246 -17.844,-14.262 -34.125,-13.945 -1.476,-3.274 5.336,-5.743 7.848,-7.895 -1.93,-5.961 -9.324,-6.453 -10.449,-13.141 25.656,-5.066 9.289,-37.394 11.304,-63.855 1.836,-23.809 15.2,-47.442 13.141,-66.453 -0.813,-7.668 -6.238,-13.813 -7.856,-19.242 11.168,-1.661 24.04,3.097 25.383,11.3 4.219,26.368 -18.113,59.196 -13.136,86.641 11.664,-14.168 11.835,-46.105 16.593,-68.203 1.879,-8.527 4.664,-17.141 4.438,-24.531 -0.672,-18.477 -14.66,-22.286 -33.278,-20.989 -41.339,3 -83,27.981 -114.617,41.114 -11.523,-6.317 -21.343,-18.25 -38.476,-14.832 -12.825,2.461 -16.321,15.918 -32.371,12.187 -19.871,-4.57 -43.278,-18.965 -68.211,-17.48 -4.395,-2.024 -3.137,-9.688 -6.141,-13.145 10.27,-1.973 13.313,-10.762 22.734,-15.695 6.141,-3.231 15.157,-3.36 23.676,-6.141 15.071,-5.019 25.293,-13.098 41.973,-17.488 8.113,-2.152 18.883,-3.324 22.734,-6.996 7.403,-7.125 3.051,-25.477 14.844,-26.278 2.195,6.504 -2.555,9.551 -0.852,17.528 0.903,4.355 4.891,7.09 4.352,12.25 -0.449,4.707 -6.859,11.519 -12.195,12.234 -9.782,1.309 -17.848,-7.305 -27.133,-4.348 -9.504,3.008 -16.102,18.204 -25.426,26.235 -12.871,11.168 -29.016,13.719 -48.07,16.637 6.226,5.468 16.453,1.711 23.586,0 7.086,-1.707 15.965,-3.719 21.883,-7.938 9.191,-6.406 15.156,-19.277 22.781,-23.582 13.808,-7.805 51.929,0.625 54.215,-17.492 1.168,-9.063 -8.653,-14.668 -9.641,-21.883 -1.254,-9.238 5.738,-18.969 3.496,-29.73 -1.746,-8.524 -9.867,-13.954 -11.344,-22.743 h -7.039 c -1.972,21.758 -4.304,37.813 -14.801,50.774 -14.71,17.976 -52.062,19.051 -80.492,28.875 -12.379,4.219 -21.972,9.101 -36.773,13.945 -17.172,5.606 -39.281,9.016 -32.375,31.485 8.207,26.628 35.43,43.847 54.262,59.5 -6.817,6.644 -1.532,26.414 3.496,28.878 5.472,-1.793 1.3,-13.226 2.644,-19.238 5.738,0.899 10.184,10.766 10.449,20.094 9.508,-0.676 2.645,-17.805 6.997,-23.59 18.386,-1.211 4.441,21.66 11.386,29.688 h 6.102 c 0.719,-7.801 -1.879,-27.086 6.144,-27.938 3.496,-0.449 9.551,7.758 10.493,12.242 2.109,9.864 -2.825,24.121 5.292,28.836 -24.171,2.824 -35.468,-16.281 -56.054,-11.394 0.629,19.734 25.152,18.476 44.668,22.785 4.75,2.508 5.824,12.105 12.238,15.738 2.555,1.477 7.621,1.168 11.344,2.645 8.433,3.226 15.648,12.328 21.929,13.14 5.649,0.676 10.805,-4.664 15.743,-0.941 -6.774,12.508 -21.797,1.39 -31.532,-0.809 0.633,29.059 6.731,52.692 16.645,72.602 -13.277,-9.371 -21.438,-32.961 -41.168,-40.27 -9.105,-3.363 -23.5,-6.051 -31.438,-5.246 0.133,6.055 7.536,6.188 11.344,7.848 19.957,8.926 39.91,17.668 46.367,38.519 -17.531,0.539 -34.621,-6.902 -47.261,-17.488 -14.489,-12.285 -28.926,-30.184 -41.078,-42.914 -6.141,-1.164 -5.696,4.262 -11.387,3.543 -10.945,-6.996 0.398,-22.152 9.64,-22.785 6.454,0.855 7.844,6.773 12.286,9.644 0.222,-8.789 -6.996,-17.488 -20.176,-15.742 -9.195,5.426 -5.742,13.996 -14.895,20.137 -8.023,5.469 -21.343,3.859 -27.082,11.391 -1.797,2.332 -1.57,5.917 -2.601,7.847 -2.559,4.664 -6.633,5.649 -9.645,10.492 v 6.102 c 9.153,4.574 13.684,-4.621 20.094,-6.953 34.754,-12.735 55.34,5.605 72.602,23.586 9.597,9.957 18.386,21.574 28.878,30.586 7.942,6.863 19.551,13.047 26.282,18.429 9.906,7.942 15.961,20.137 27.082,22.735 M 635.48,880.688 c -1.039,4.617 -9.152,10.132 -13.996,5.199 4.575,-1.254 10.137,-6.141 13.996,-5.199 m 120.711,-57.805 c 14.622,-23.719 14.129,21.836 32.379,14.89 v 8.79 c -20.047,4.125 -11.3,-26.149 -32.379,-23.68 m 37.625,2.691 c -4.304,-4.168 -6.589,-10.402 -10.535,-14.886 -8.926,-4.758 -30.543,3.183 -34.125,-7.043 7.532,-5.872 22.641,-4.168 28.918,-11.344 2.649,-6.414 0.813,-17.27 3.457,-23.633 -1.527,-0.715 -2.195,-2.426 -5.203,-1.75 -4.351,7.988 -13.586,15.469 -26.277,12.285 -8.031,-20.402 19.461,-28.43 28.023,-14.883 1.125,-4.441 5.699,-5.382 7.899,-8.75 -3.192,-1.836 -8.391,-1.609 -8.793,-6.144 1.707,-4.121 10.179,-1.473 12.246,-5.242 -1.75,-3.457 -7.406,-3.047 -11.352,-4.356 0.141,-3.398 3.504,-3.445 4.352,-6.144 30.855,3.007 42.422,37.226 36.773,68.214 -3.453,-16.683 -8.164,-32.07 -27.129,-33.23 -6.773,4.258 -5.832,18.836 -2.644,26.277 18.648,2.11 34.707,11.297 29.773,34.125 -5.156,-1.566 -15.515,-8.922 -25.383,-3.496 M 652.965,707.457 c 3.812,6.414 12.828,13.992 25.426,14.891 4.797,0.312 9.953,-1.621 15.695,-0.899 5.113,0.676 9.863,3.77 14.844,5.242 13.765,3.997 25.289,5.969 25.425,15.743 0.086,12.199 -16.457,13.859 -27.128,8.742 -19.914,8.476 -32.957,-5.781 -44.668,-17.492 -11.211,-11.2 -29.012,-27.84 -13.946,-39.364 7.672,2.196 4.617,8.114 4.352,13.137"
         style="fill:#1a69b0;fill-opacity:1;fill-rule:nonzero;stroke:none"
         id="path88" />
      <path
         d="m 924.355,1407.24 h 1.75 c 1.208,-27.72 -5.019,-54.31 -6.093,-79.64 -0.407,-8.44 -1.617,-21.17 0.847,-27.94 2.649,-7.4 14.125,-10.05 14.887,-18.39 0.676,-8.25 -7.801,-11.25 -9.641,-20.09 -2.421,-11.75 2.918,-20.63 0.852,-32.38 19.867,0.09 51.66,-3.81 38.477,-25.38 -11.391,-2.82 -16.547,8.53 -24.438,3.5 3.09,-4.75 12.555,-3.14 10.445,-13.09 -4.078,-4.13 -11.57,-0.41 -14.839,1.7 0.988,-9.19 15.781,-4.62 13.089,-17.49 -3.183,-3.54 -11.117,-1.21 -13.089,1.75 -2.559,-4.4 11.074,-7.53 8.742,-15.74 -2.555,-8.97 -15.559,-1.34 -24.485,-2.6 -10.406,-1.48 -12.691,-11.44 -19.238,-11.39 2.109,-3.81 6.192,-8.34 6.996,-13.99 1.395,-10.09 -3.32,-13.45 -5.25,-20.13 -8.156,-28.08 2.918,-73.96 -13.137,-91.85 6.008,-4.79 14.04,-7.48 20.985,-11.34 2.558,35.92 -3.363,84.93 0,118.93 0.898,9.05 4.308,19.01 15.742,15.74 3.859,-6.96 -0.355,-14.4 -0.852,-21.85 -2.597,-38.6 3.543,-83.44 0.852,-121.61 6.637,-4.573 11.703,-14.214 20.133,-14.796 7.578,-0.586 21.617,7.934 32.379,12.196 16.011,6.37 29.461,10.62 48.971,9.6 1.84,7.26 -0.09,17.22 6.1,18.43 6.28,1.16 10.26,-10.45 14.03,-17.58 7.36,-13.767 12.51,-28.076 30.63,-22.646 0.9,6.723 0.18,9.774 0.85,16.546 5.38,-2.74 9.37,-10.042 10.5,-16.546 5.91,-34.758 -3.27,-91.707 -22.74,-98.027 -24.04,-7.758 -35.07,18.562 -33.27,44.621 4.26,0.265 7.53,-2.422 8.79,1.789 -6.1,9.422 -4.85,21.75 -13.14,27.933 -14.22,10.723 -38.299,-2.144 -57.717,-0.847 40.267,-47.664 67.447,-113.274 62.957,-200.313 -4.17,-82.246 -43.18,-133.816 -89.235,-174.082 -4.304,-3.816 -18.656,-13.816 -20.09,-18.386 -1.925,-6.063 0,-16.59 0,-25.383 v -77.797 c 43.629,-3.723 79.375,7.258 112.825,16.59 1.79,10.449 4.4,22.109 8.75,31.519 3.9,8.34 8.02,20.809 19.23,19.239 4.31,-3.5 0.14,-11.918 0.9,-17.532 18.25,5.071 21.39,25.242 48.12,21.883 9.46,-13.18 33.18,-14.75 49.01,-21.883 3.68,-1.656 5.56,-6.238 9.6,-4.359 2.02,20.5 -12.78,29.152 -27.98,35.832 -9.65,4.258 -22.24,5.969 -22.79,14.898 -0.63,10.93 16.15,19.688 30.63,16.629 9.06,-1.875 10.63,-12.199 18.39,-10.488 -0.94,15.645 -5.83,27.488 -17.49,28.828 -13.72,1.621 -27.54,-13.047 -39.37,-21.836 -7.58,-5.64 -28.3,-24.172 -39.38,-21.883 -8.92,1.84 -10.71,21.434 -7.89,32.379 3.27,12.375 19.69,25.196 21.89,35.871 4.21,20.047 -10.95,43.008 -19.24,58.614 -9.15,17.215 -17.35,36.414 -18.39,59.461 -1.88,43.324 13.37,58.566 26.28,86.593 3.46,1.524 7.26,2.649 11.35,3.496 8.11,11.747 13.14,31.211 14.84,46.368 -4.89,-7.891 -5.16,-17.981 -12.2,-26.274 -8.97,-10.449 -31.57,-12.023 -42.87,-6.101 -10.72,5.652 -11.48,26.457 -6.99,40.226 8.88,-4.801 12.37,-14.98 20.98,-20.051 20.9,13.86 37.04,37.985 39.38,69.914 2.6,36.278 -10.36,72.645 -16.64,102.375 -16.68,1.31 -23.86,8.84 -38.48,8.75 -25.29,-0.18 -42.19,-24.22 -61.207,-7 3.539,4.76 9.059,0.95 14.797,0.86 17.98,18.87 63.81,15.11 91.03,14.88 0.54,3.54 3.72,4.4 3.5,8.75 -20.63,5.92 -25.56,27.53 -30.63,49.01 -16.27,-0.27 -31.79,0.27 -38.47,9.6 5.24,11.34 15.15,12.46 20.98,23.59 6.68,12.87 1.48,28.07 7,42.01 4.48,11.26 18.92,29.87 31.48,28.84 11.92,-0.9 21.12,-18.07 26.28,-27.94 6.77,-13.05 11.39,-25.38 13.09,-41.12 12.55,0 25.65,0.58 35.03,-2.65 -10.19,33.05 -19.83,69.06 -56.06,73.5 -7.53,0.94 -18.93,-2.78 -27.08,0.85 -10.37,4.66 -10.27,23.5 -11.4,34.17 51.48,0.32 85.03,-32.46 103.23,-66.5 6.95,-12.96 9.15,-26.95 14.04,-42.91 2.06,-6.69 9.28,-16.51 -2.65,-17.49 4.31,-8.52 2.16,-19.64 -3.54,-26.2 4.93,-3.67 16.01,-12.64 23.68,-16.63 4.26,-2.24 11.97,-3.22 13.13,-7 3.37,-11.65 -15.91,-14.52 -27.17,-16.67 -1.97,-2.29 4.4,-3.68 2.65,-8.71 -2.38,-5.51 -9.96,-5.78 -12.29,-11.38 4.35,-7.36 10.05,-13.32 11.39,-23.59 -5.34,1.56 -10.36,3.59 -14.84,6.09 -4.44,7.32 -7.04,16.96 -12.29,26.29 -2.29,4.08 -6.19,6.27 -7.85,11.3 -4.3,13.31 0.9,33 0.9,49.01 0,4.04 -1.53,7.49 -0.9,10.53 1.17,5.21 7.05,6.55 7.85,10.46 -8.25,6.63 -20.31,2.02 -21.84,-7.85 -0.85,-5.74 4.8,-11.57 -0.89,-15.74 -20.32,-1.97 -13.1,23.59 -24.44,30.62 -17.4,-1.61 -28.12,-9.82 -38.53,-18.38 2.87,-3.54 11.17,-1.7 14,-5.25 1.88,-7.4 -9.51,-10.4 -4.4,-15.56 5.25,-2.02 14.31,3.01 16.64,-1.93 -3.86,-6.32 -14.89,-1.75 -15.74,-9.64 -0.54,-5.11 8.61,-11.97 17.49,-11.39 4.88,0.36 8.25,5.38 13.99,4.44 17.31,-3 3.5,-32.37 6.99,-49.02 -8.29,-1.02 -14.52,-4.12 -18.34,-9.63 4.53,-27.045 2.69,-58.436 20.99,-70.858 18.21,-12.328 38.48,0.633 57.76,6.102 2.91,-9.641 2.73,-18.297 0,-24.485 -2.78,-6.14 -15.56,-17.851 -22.74,-21.839 -3.9,-2.157 -8.25,-1.883 -11.39,-4.352 -3.86,-3.09 -7.31,-11.793 -10.54,-17.531 -6.9,-12.469 -16.32,-23.321 -12.19,-42.871 6.36,-7.309 14.8,-12.602 21.84,-19.239 6.85,-0.714 14.08,-1.121 16.63,-6.097 1.43,-10.586 -6.09,-19.418 -6.09,-29.782 -0.1,-10.668 8.38,-25.293 13.09,-32.371 1.52,-2.336 3.23,-7.754 6.14,-6.101 5.88,57.668 21.53,105.562 41.08,149.597 -8.07,7.09 -23.77,6.547 -29.73,15.743 3.05,10.941 14.43,16.41 21.84,24.484 8.56,9.234 13.94,24.262 31.52,22.73 -0.09,-7.976 -0.36,-16.046 3.45,-20.085 19.02,15.156 34.44,40.449 66.51,43.769 66.36,6.723 81.56,-54.172 98.88,-101.484 v -1.793 c -16.51,35.699 -30.72,73.676 -76.15,80.496 15.83,-163.813 -12.46,-319.641 -61.21,-432.164 43.73,-3.18 67.22,19.511 85.74,44.625 5.34,7.261 9.42,16.277 16.64,21.883 -21.71,-33.715 -47.8,-93.356 -110.23,-86.598 -11.7,1.262 -22.6,7.582 -30.63,13.101 -1.43,0.989 -3.99,4.258 -6.1,2.649 -3.18,-13.238 -14.12,-19.289 -21.92,-33.27 -7.94,-14.257 -9.87,-34.168 -26.19,-31.437 -13.27,2.199 -9.55,21.387 -19.24,28.828 -6.81,-9.102 -1.61,-22.012 -2.69,-33.27 -1.43,-15.519 -10.4,-28.832 -10.45,-41.082 3.77,3.551 15.88,3.364 21.84,1.75 -10.94,-17.847 -31.12,-26.418 -51.61,-33.269 -22.74,-7.539 -47,-7.891 -74.35,-9.598 -26.96,-1.66 -45.25,-16.5 -53.367,-38.48 -7.668,-20.942 -2.649,-49.242 -13.993,-70.852 -13.316,123.672 89.1,146.371 153.1,198.571 -23.59,4.218 -26.14,18.109 -50.72,16.64 -26.41,-1.621 -54.71,-28.84 -65.65,-57.769 -3.72,-9.809 -3.32,-22.141 -8.7,-30.582 -5.52,-8.688 -16.416,-12.739 -21.928,-19.227 -8.926,-10.773 -10.27,-30.992 -27.086,-32.383 -4.801,1.883 -3.543,9.86 -6.098,13.992 -7.715,-4.57 -14.351,-10.14 -15.742,-21.031 3.274,-6.82 23.051,-2.461 24.484,-12.199 0.762,-5.422 -8.296,-10.09 -8.742,-17.531 -0.988,-15.211 17.352,-29.649 13.946,-43.719 -1.481,-6.191 -10.676,-7.18 -12.2,-10.539 4.301,-8.66 7.129,-15.25 16.637,-20.102 8.477,-4.34 23.496,-2.109 20.09,-14.84 h -13.137 c -6.773,1.661 -14.082,2.782 -19.238,6.102 -3.457,7.809 -10.449,11.656 -13.992,19.238 -4.574,9.782 -6.188,22.34 -12.285,32.379 -2.114,3.59 -5.426,7.313 -7.848,10.442 -2.785,3.808 -4.844,7.757 -6.953,10.539 -7.313,9.429 -22.379,14.89 -18.387,29.742 1.707,6.449 12.336,8.699 18.387,13.129 5.558,4.078 10.672,11.609 17.488,17.488 6.594,5.699 15.293,10.18 19.238,14.902 10.895,12.95 9.684,32.77 16.637,46.309 4.309,8.52 11.703,9.379 14.801,18.391 -18.348,15.019 -44.125,0.039 -69.059,2.597 -15.336,1.571 -31.168,1.211 -46.367,4.442 -12.473,2.558 -21.66,10.941 -34.133,12.199 -39.906,3.98 -67.621,-23.508 -84.843,-48.109 24.621,12.089 38.566,33.8 76.148,34.968 16.5,0.582 30.184,-3.308 48.07,-6.949 9.328,-1.879 42.739,-4.84 41.125,-14.039 -1.304,-7.391 -24.441,-5.52 -34.98,-5.199 -16.367,0.359 -25.426,2.687 -37.621,2.597 -48.344,-0.359 -91.703,-25.07 -97.985,-70 -1.972,-13.808 -1.211,-26.41 -10.492,-27.128 -12.828,-0.86 -23.004,30.589 -24.488,46.371 -2.777,29.859 13.726,47.839 30.629,63.007 14.715,13.184 30.719,25.063 42.828,33.274 36.766,24.617 77.578,12.367 125.066,4.348 2.02,29.511 0.403,62.64 0.895,93.589 -31.93,-13.91 -62.914,-27.679 -104.977,-29.738 -103.5,-5.152 -175.203,39.02 -218.656,102.336 -39.773,57.977 -68.07,170 -27.129,253.68 -13.812,13.004 -25.293,28.386 -47.223,33.273 -7.843,-5.875 -17.214,-11.48 -22.734,-20.137 -3.316,-5.105 -4.035,-12.105 -7.039,-17.531 -4.707,-8.429 -10.676,-15.566 -14.844,-24.484 -4.258,-8.973 -6.504,-18.883 -13.14,-26.188 -4.66,32.422 13.097,49.864 21.031,72.598 -19.727,-1.66 -41.973,-0.668 -54.301,-9.641 -7.402,-19.101 6.59,-36.367 7.035,-54.261 0.18,-7.399 -3.808,-14.797 -3.496,-21.836 0.363,-7.938 4.485,-15.203 4.395,-22.782 -0.176,-11.613 -6.86,-21.257 -2.649,-33.226 8.973,-3.137 14.578,7.351 23.633,6.988 15.477,-0.625 18.883,-28.785 27.984,-41.07 7.086,-9.641 22.606,-18.391 33.278,-27.129 10.582,-8.789 20.133,-19.289 29.683,-29.738 18.832,-20.664 41.528,-41.211 46.372,-73.496 0.988,-6.368 0.988,-11.301 -0.856,-16.594 -2.109,-6.141 -10.941,-10.934 -12.289,-14.934 -1.117,-3.449 0.5,-11.969 0,-18.289 -2.148,-31.711 -8.965,-66.808 -6.949,-101.531 0.719,-12.547 6.551,-25.777 0,-35.867 -6.055,12.558 -5.871,28.25 -7.039,43.769 -1.117,15.469 -2.02,31.16 -0.852,48.11 2.242,32.879 8.34,68.519 4.395,97.043 -3.094,21.886 -29.328,31.211 -44.618,42.91 -1.167,0.851 -3.183,4.484 -5.25,2.609 -0.312,-18.437 -4.035,-30.859 4.352,-42.871 5.961,-8.527 18.434,-9.102 20.133,-19.238 0.894,-5.469 -3.188,-13.004 -2.645,-17.492 1.032,-8.391 13.231,-12.422 14.035,-21.883 1.301,-16.367 -14.527,-20.68 -24.527,-28.84 -19.015,-15.641 -36.816,-59.5 -13.098,-82.238 5.34,2.328 2.2,17.449 11.348,18.379 14.887,1.492 12.426,-39.051 15.738,-50.758 1.211,-4.121 4.215,-7.801 6.145,-12.231 1.121,-2.609 0.449,-4.621 1.754,-7.011 4.211,-7.661 7.437,-21.161 11.34,-31.469 3.32,-8.699 8.922,-18.571 1.75,-24.481 -7.938,-1.711 -9.735,6.942 -14.844,5.239 -1.793,-7.629 -4.352,-21.661 4.394,-23.629 10.493,-2.379 23.407,18.109 42.829,10.531 4.437,-1.789 11.925,-7.531 11.39,-17.492 -0.449,-8.071 -5.293,-6.899 -7.847,-15.828 6.722,-4.34 17.531,-7.532 18.339,-16.539 0.493,-5.704 -5.918,-8.75 -2.644,-14.043 8.832,-5.469 20,3.5 30.625,3.5 7.848,0 19.012,-3.45 18.387,-10.489 -1.297,-14 -38.164,-4.621 -50.762,-5.25 -7.625,11.7 -30.094,5.918 -43.723,13.141 -4.617,2.418 -6.551,9.199 -10.496,10.449 -13.539,4.531 -27.976,-3.051 -30.625,10.531 -1.617,8.387 6.098,18.297 7.039,24.528 1.121,7.812 -1.347,15.972 -0.894,23.59 0.222,4.3 2.644,8.25 2.593,12.211 -0.261,19.449 -15.64,38.371 -26.226,54.289 -11.258,16.82 -23.41,33.281 -24.485,55.07 -1.035,19.91 7.485,38.531 3.497,62.961 -17.086,4.762 -32.332,-11.031 -49.012,-9.59 9.367,14.84 29.773,18.699 50.762,21.879 0.941,4.75 1.703,13.73 0,18.34 -5.34,-0.078 -18.164,1.133 -23.633,-2.598 -4.215,-2.871 -4.215,-10.449 -8.703,-14.891 -5.426,-5.199 -20.27,-8.378 -28.875,-11.339 -10.676,-3.68 -22.157,-9.469 -33.274,-6.153 -8.344,2.473 -6.863,15.383 -21.84,11.391 -1.082,-7.488 6.278,-8.34 6.098,-16.629 -0.18,-8.609 -10.586,-14.98 -14.887,-27.129 -1.617,-4.582 -1.031,-9.601 -2.601,-13.141 -3.317,-7.531 -14.399,-11.531 -16.637,-19.242 -3.68,-12.558 5.426,-20.679 0,-34.976 -4.977,-0.891 -6.594,1.527 -10.492,1.758 -5.113,4.929 -2.285,14.429 -3.496,22.769 -0.903,5.973 -4.172,9.82 -4.352,14.84 -0.543,12.961 10.762,24.711 12.238,36.781 2.563,21.031 -16.675,49.949 1.75,60.309 10.364,5.871 29.957,-2.16 41.079,0.902 16.144,4.348 26.05,29.5 49.863,31.481 6.281,0.527 11.437,-2.602 19.281,-1.75 -2.508,6.41 -10.223,8.961 -14.031,13.992 -6.774,9.051 -10.762,20.086 -20.094,27.976 -26.004,22.024 -64.125,21.836 -85.734,51.621 -18.567,25.645 -23.727,64.297 -17.492,113.719 -5.379,6.008 -16.141,10.313 -20.989,19.285 -7.578,13.946 -3.941,34.032 -5.246,55.11 -2.379,38.386 -23.004,88.703 -7.039,121.57 -36.371,0.043 -50.945,21.883 -56.812,52.515 v 20.09 c 2.82,1.93 8.738,2.56 11.382,0 -3.406,-30.99 30.227,-59.015 57.715,-48.12 11.211,4.44 17.492,18.88 25.383,29.78 7.984,10.99 18.43,20.54 20.137,34.97 0.894,7.98 -6.149,34.31 3.453,35.87 7.215,1.13 9.637,-17.57 9.637,-25.42 -0.086,-27.98 -12.914,-50.45 -27.985,-70.85 -13.676,-18.476 -33.894,-37.487 -33.269,-65.562 0.539,-23.136 14.886,-34.668 29.773,-43.765 2.199,7.125 6.281,12.375 10.449,17.488 -19.546,6.902 -28.164,27.984 -22.73,49.012 8.25,31.574 57.574,46.907 53.355,91.837 9.243,9.37 39.692,15.48 38.481,33.23 -0.227,3.73 -5.332,9.28 -6.949,14.03 -3.676,10.73 -3.59,22.97 -2.649,36.73 12.11,3.19 27.535,0.63 29.735,12.2 2.957,15.34 -15.028,28.66 -24.485,35.92 -15.879,-2.2 -22.922,9.15 -31.484,11.35 5.879,-4.98 7.043,-14 15.742,-17.49 3.855,-1.57 8.52,-0.31 12.242,-1.75 10.043,-3.9 14.574,-13.45 14.035,-26.23 -3.316,-2.2 -8.742,-0.36 -10.535,1.75 -1.797,-15.52 -25.699,-7.45 -29.734,0.84 -24.305,2.56 -37.176,16.51 -37.625,42.88 1.305,3.09 8.57,0.22 9.644,3.5 1.481,7.3 -4.039,12.28 -2.644,16.59 14.797,0.85 23.765,-4.22 33.226,-8.7 -2.242,8.34 -8.117,19.95 -3.496,29.73 8.34,2.15 16.235,-3.9 23.633,-8.75 7.266,-4.75 15.426,-7.62 22.734,-12.28 3.813,-2.38 8.563,-11.48 14.887,-13.09 5.742,-1.48 14.574,2.41 20.988,2.64 19.012,0.67 30.313,-6.05 49.012,-13.14 10.313,-3.9 38.52,-10.45 35.879,-20.13 -3.32,-11.89 -26.953,-1.62 -34.133,-9.64 -2.593,-6.64 1.035,-21.17 -4.437,-27.09 9.015,0.22 14.039,-3.5 19.332,-7 -1.528,-5.74 -1.887,-12.73 -7.039,-14.88 -4.715,0.53 -8.66,-0.72 -12.293,0 -7.891,1.56 -11.613,8.56 -15.692,10.49 -11.48,-10.54 6.188,-21.3 6.098,-34.08 -27.937,2.87 -11.48,-34.71 10.535,-29.73 -0.804,-5.65 -1.121,-11.75 -5.293,-13.99 -16.945,-3.37 -29.816,10.17 -42.82,4.34 -8.391,-3.76 -5.875,-17.17 -13.141,-23.58 -43.004,1.83 -69.867,-12.38 -80.449,-42.917 12.469,-5.875 22.328,-12.379 23.59,-27.086 3.586,-40.899 -46.055,-61.793 -45.52,-106.77 0.227,-18.164 9.059,-38.347 27.18,-47.179 2.234,4.441 3.988,9.371 7.844,12.199 -5.246,7.578 -8.653,9.73 -11.344,15.742 -19.465,43.312 37.981,74.078 37.578,119.867 -0.179,22.598 -11.883,26.5 -16.594,44.617 7.715,-3.093 14.532,-2.961 20.094,-6.144 22.106,-12.512 9.324,-54.528 29.778,-69.957 12.593,0.179 23.898,1.703 32.371,6.14 2.515,10.856 2.961,23.817 6.101,34.082 5.871,-4.972 3.899,-13.941 6.992,-20.086 3.325,-6.726 10.813,-9.73 14.844,-14.886 14.891,2.601 24.129,10.715 24.531,25.336 0.27,10 -7.039,20.269 -3.543,30.625 7.039,0.492 9.418,-6.95 14.887,-10.493 5.156,-3.316 11.793,-4.484 15.742,-8.746 6.325,-6.722 6.325,-16.636 12.285,-24.527 11.348,-2.602 19.688,-8.25 28.833,-13.051 4.843,9.106 10.812,17.18 17.492,24.442 -1.66,5.965 -9.145,6.05 -8.746,14.035 5.382,4.305 12.336,-0.539 17.535,-1.75 26.14,27.847 60.094,55.157 103.183,69.097 42.289,13.69 106.192,16.87 150.45,3.51 4.488,7.71 4.082,15.87 5.293,23.58 1.168,7.98 3.234,14.63 6.097,22.79 5.113,14.43 14.844,28.87 16.637,41.97 0.449,3.5 -0.938,7.17 -0.895,10.49 0.36,31.48 20.407,49.91 26.231,78.75 3.41,16.72 -1.703,35.02 0,55.96 -3.766,3.5 -12.465,2.11 -14.887,6.99 0.899,52.25 18.883,87.27 28.027,131.22 M 366.234,1160.55 c -1.074,12.87 -9.906,18.08 -20.086,21.88 0.625,-13.36 7.985,-20 20.086,-21.88 M 611.172,948.891 c -38.25,-38.246 -71.078,-96.008 -68.207,-172.375 2.687,-72.02 38.969,-123.856 79.594,-160.047 43.949,-39.153 97.8,-65.379 176.683,-63.86 70.988,1.391 126.594,33.371 165.336,74.348 37.402,39.598 72.562,94.629 68.252,172.297 -1.97,34.793 -12.78,64.93 -27.13,92.777 -38.559,74.574 -113.493,138.209 -228.298,132.059 -78.695,-4.16 -125.961,-34.926 -166.23,-75.199 m -285.16,2.601 c 5.023,-9.863 9.371,-20.355 14.886,-29.73 5.336,3.676 9.551,8.562 12.247,14.843 -5.161,10.629 -5.516,26.055 -13.997,33.235 -3.585,-6.91 -10.132,-10.813 -13.136,-18.348 m 66.504,-174.976 c -0.539,0.129 -1.078,0.175 -0.899,0.941 -5.695,29.91 21.883,45.785 24.488,72.555 1.567,16.011 -5.027,32.336 -18.339,38.523 -2.024,-1.793 -4.715,-2.961 -5.25,-6.144 1.523,-5.473 5.605,-8.61 6.949,-13.989 8.699,-33.457 -34.121,-50.273 -23.586,-83.949 4.844,-2.777 12.285,-7.535 16.637,-7.937 m -27.133,81.386 c 1.797,-10.445 5.695,-18.832 11.39,-25.379 3.188,5.829 6.727,11.348 9.598,17.489 -4.262,4.215 -3.094,13.816 -9.598,15.746 -4.257,-2.199 -8.699,-4.133 -11.39,-7.856 m 121.57,-189.82 c -4.215,10.359 -8.965,20.672 -13.14,28.887 -34.079,10.797 -54.438,35.281 -72.602,62.058 -23.047,1.746 -44.75,9.461 -62.91,13.133 -0.899,0 -1.078,-0.711 -1.754,-0.847 5.164,-11.7 18.746,-15.247 28.836,-20.989 9.375,-5.379 23.094,-12.508 28.879,-20.984 8.16,-12.11 7.222,-26.055 17.492,-36.731 2.914,-3.132 7.039,-4.656 9.594,-7.937 6.953,-8.692 6.816,-21.789 15.742,-29.727 -0.492,4.883 4.258,4.481 7.89,5.293 5.696,-2.472 2.465,-13.906 11.348,-13.144 2.555,4.082 -2.914,6.64 -1.75,12.246 9.055,8.254 11.031,-3.145 15.781,-7.891 2.739,-2.734 7.129,-3.722 10.496,-6.105 3.989,-2.91 5.875,-7.75 8.747,-7.039 10,8.476 0.847,21.211 -2.649,29.777 m 621.087,33.231 c 33.85,-0.04 49.64,-17.977 71.75,-29.727 -1.04,10.312 -1.48,21.25 -1.8,32.375 -19.82,7.977 -51.93,5.555 -69.95,-2.648 m 76.14,-63.008 c -11.07,12.644 -54.48,30.047 -62.15,2.695 6.41,-6.453 19.19,-2.246 27.13,-3.543 14.21,-2.336 26.68,-17.492 34.12,-26.234 2.74,-3.231 6.32,-9.547 8.75,-7.848 -2.92,11.344 -6.91,21.609 -7.85,34.93 m 28.83,-100.535 c 2.56,2.062 5.43,3.941 7.9,6.101 -6.46,8.688 -11.84,18.52 -17.49,27.981 1.66,-12.922 2.91,-26.192 9.59,-34.082"
         style="fill:#1a69b0;fill-opacity:1;fill-rule:nonzero;stroke:none"
         id="path90" />
      <path
         d="m 1930.24,1055.98 c -5.29,5.29 -8.34,10.63 -14.04,10.63 -5.33,0 -36.9,-23.95 -87.49,-23.95 -78.74,0 -85.16,45.25 -85.16,96.95 v 100.4 c 0,46.42 0,48.3 -14.84,49.83 l -13.68,1.16 v 8.34 h 92.38 V 1291 l -13.67,-1.16 c -14.85,-1.53 -14.85,-3.41 -14.85,-49.83 v -94.3 c 0,-54.35 9.15,-90.49 68.07,-90.49 39.55,0 63.14,23.58 68.84,30.4 v 154.39 c 0,46.42 0,48.3 -14.84,49.83 l -13.68,1.16 v 8.34 h 92.42 V 1291 l -13.72,-1.16 c -14.84,-1.53 -14.84,-3.41 -14.84,-49.83 V 1048.4 l -11.39,-3.45 -9.51,11.03"
         style="fill:#231f20;fill-opacity:1;fill-rule:nonzero;stroke:none"
         id="path92" />
      <path
         d="m 1998.62,1056.74 13.68,1.12 c 14.85,1.12 17.49,12.96 17.49,54.04 v 187.44 l 8.75,3.41 c 31.57,-40.32 143.76,-156.63 185.2,-197.36 v 130.41 c 0,41.88 0,52.15 -20.95,54.08 l -13.67,1.08 v 8.38 h 82.15 v -8.38 l -13.67,-1.08 c -13.68,-1.21 -16.33,-12.96 -16.33,-54.08 v -187.45 l -8.43,-3.4 c -8.34,8.69 -31.92,33.81 -71.47,74.53 l -114.08,120.58 V 1111.9 c 0,-41.84 0,-52.15 19.81,-54.04 l 13.68,-1.12 v -8.39 h -82.16 v 8.39"
         style="fill:#231f20;fill-opacity:1;fill-rule:nonzero;stroke:none"
         id="path94" />
      <path
         d="m 2306.97,1056.74 13.67,1.12 c 14.85,1.53 14.85,3.46 14.85,49.82 v 132.38 c 0,46.37 0,48.25 -14.85,49.82 l -13.67,1.08 v 8.38 h 92.38 v -8.38 l -13.64,-1.08 c -14.89,-1.57 -14.89,-3.45 -14.89,-49.82 v -132.38 c 0,-46.36 0,-48.29 14.89,-49.82 l 13.64,-1.12 v -8.39 h -92.38 v 8.39"
         style="fill:#231f20;fill-opacity:1;fill-rule:nonzero;stroke:none"
         id="path96" />
      <path
         d="m 2457.82,1260.55 c -5.69,14.08 -9.91,28.12 -22.42,29.33 l -11.03,1.12 v 8.34 h 94.66 V 1291 l -11.74,-1.12 c -6.11,-0.81 -17.13,-1.93 -17.13,-9.5 0,-1.93 3.04,-10.68 4.98,-15.25 l 65.73,-169.6 c 8.79,22.78 68.48,170.76 68.48,182.47 0,7.67 -7.63,9.55 -14.85,10.67 l -17.13,2.33 v 8.34 h 82.16 V 1291 l -9.87,-2.33 c -4.21,-0.72 -8.38,-3 -11.44,-6.01 -8.34,-8.43 -20.53,-44.93 -30.04,-63.18 l -25.83,-62.38 c -21.66,-52.47 -40.72,-98.83 -44.13,-108.75 -1.87,-1.47 -7.98,-4.17 -12.96,-5.69 l -87.44,217.89"
         style="fill:#231f20;fill-opacity:1;fill-rule:nonzero;stroke:none"
         id="path98" />
      <path
         d="m 2704.01,1056.74 13.68,1.12 c 14.84,1.53 14.84,3.46 14.84,49.82 v 132.38 c 0,46.37 0,48.25 -14.84,49.82 l -13.68,1.08 v 8.38 h 163.95 c 1.43,-8.38 4.17,-22.77 4.17,-40.27 0,-8.78 -0.81,-11.84 -0.81,-15.2 l -9.1,-1.57 c -8.39,40.72 -9.15,46.37 -62.74,46.37 h -31.61 v -104.58 h 33.86 c 29.69,0 36.54,0.41 38.79,16.02 l 1.92,12.91 h 9.86 v -68.43 h -9.86 l -1.92,12.91 c -2.25,15.61 -9.1,15.97 -38.79,15.97 h -33.86 v -109.51 c 13.67,-2.64 27.8,-4.98 41.48,-4.98 60.49,0 64.26,22.88 71.88,54.04 l 9.51,-1.52 c -1.12,-24.31 -6.1,-42.25 -12.56,-63.15 h -174.17 v 8.39"
         style="fill:#231f20;fill-opacity:1;fill-rule:nonzero;stroke:none"
         id="path100" />
      <path
         d="m 2983.93,1168.54 h 21.66 c 31.92,0 60.85,17.13 60.85,60.09 0,44.53 -29.29,58.16 -58.97,58.16 -7.99,0 -15.97,-1.53 -23.54,-3.05 z m -63.91,-111.8 13.63,1.12 c 14.89,1.53 14.89,3.46 14.89,49.82 v 132.38 c 0,46.37 0,48.25 -14.89,49.82 l -13.63,1.08 v 8.43 h 99.24 c 36.1,0 87.09,-5.34 87.09,-63.14 0,-35.38 -31.57,-56.32 -52.51,-66.19 5.73,-10.67 18.29,-34.98 28.51,-53.23 15.97,-28.56 32.74,-50.99 42.25,-56.28 3.76,-2.33 10.67,-3.81 19.01,-3.81 v -8.39 h -29.28 c -25.11,0 -42.55,17.14 -54,38.03 l -15.19,29.33 c -9.96,18.61 -18.66,33.05 -23.6,37.22 -6.09,4.98 -15.55,4.98 -23.58,4.98 h -14.03 v -50.23 c 0,-46.36 0,-48.29 14.39,-49.82 l 13.67,-1.12 v -8.39 h -91.97 v 8.39"
         style="fill:#231f20;fill-opacity:1;fill-rule:nonzero;stroke:none"
         id="path102" />
      <path
         d="m 3261.33,1192.48 c 30.04,-17.13 61.21,-33.05 61.21,-78.7 0,-51.39 -47.54,-71.12 -87.85,-71.12 -29.64,0 -47.89,7.98 -59.69,15.2 -6.82,14.84 -12.15,42.96 -12.15,66.95 l 12.15,3.05 c 4.17,-27.4 18.3,-72.64 70.36,-72.64 26.28,0 45.66,17.13 45.66,46.76 0,27.81 -23.19,46.73 -52.88,60.06 l -24.35,13.31 c -21.66,11.84 -41.84,35.38 -41.84,63.9 0,46.42 38.84,65.79 79.1,65.79 23.6,0 42.6,-6.05 52.48,-12.16 3.09,-12.19 3.8,-42.95 3.8,-52.5 h -9.5 c -3.82,19.05 -9.87,52.15 -52.83,52.15 -22.06,0 -41.47,-16.01 -41.47,-41.48 0,-22.42 16.36,-34.58 36.9,-46.73 l 20.9,-11.84"
         style="fill:#231f20;fill-opacity:1;fill-rule:nonzero;stroke:none"
         id="path104" />
      <path
         d="m 3352.35,1056.74 13.69,1.12 c 14.79,1.53 14.79,3.46 14.79,49.82 v 132.38 c 0,46.37 0,48.25 -14.79,49.82 l -13.69,1.08 v 8.38 h 92.39 v -8.38 l -13.64,-1.08 c -14.89,-1.57 -14.89,-3.45 -14.89,-49.82 v -132.38 c 0,-46.36 0,-48.29 14.89,-49.82 l 13.64,-1.12 v -8.39 h -92.39 v 8.39"
         style="fill:#231f20;fill-opacity:1;fill-rule:nonzero;stroke:none"
         id="path106" />
      <path
         d="m 3527.02,1056.74 14.03,1.12 c 20.9,1.53 20.9,3.46 20.9,49.82 v 180.99 h -19.72 c -53.64,0 -54.4,-5.65 -62.74,-49.78 h -9.15 c 0,1.53 -0.72,11.75 -0.72,16.73 0,17.49 2.61,35.34 4.13,43.72 h 211.84 c 1.48,-8.38 4.17,-26.23 4.17,-43.72 0,-4.98 -0.77,-15.2 -0.77,-16.73 h -9.1 c -8.39,44.13 -9.15,49.78 -62.78,49.78 h -19.78 v -180.99 c 0,-46.36 0,-48.29 21.35,-49.82 l 13.68,-1.12 v -8.39 h -105.34 v 8.39"
         style="fill:#231f20;fill-opacity:1;fill-rule:nonzero;stroke:none"
         id="path108" />
      <path
         d="m 3754.74,1161.32 c 11.43,0.76 23.23,1.93 34.62,1.93 12.19,0 24.35,-0.41 36.5,-1.93 l -34.93,92.02 z m 57.44,158.2 c -16.32,10.27 -72.65,41.44 -74.52,42.61 1.87,8.69 6.09,16.32 12.19,22.42 20.49,-15.21 47.89,-38.03 66.6,-55.92 z m -137.27,-262.78 7.23,1.12 c 14.48,2.29 16.37,6.46 25.52,28.57 l 79.05,192.38 c 3.05,7.62 6.05,15.2 9.15,22.46 l 11.03,3.81 84.8,-220.17 c 5.69,-15.25 9.5,-24 19.37,-25.93 l 15.2,-2.24 v -8.39 H 3832 v 8.39 l 17.09,3.05 c 6.86,1.12 11.79,3.01 11.79,7.22 0,2.65 -1.52,5.29 -2.24,7.98 l -26.64,71.84 c -14.12,2.69 -28.16,3.81 -42.24,3.81 -13.31,0 -26.6,-1.52 -39.91,-3.81 l -19.37,-52.82 c -4.62,-12.2 -7.63,-22.42 -7.63,-25.52 0,-7.17 4.89,-8.34 9.1,-8.7 l 22.79,-3.05 v -8.39 h -79.83 v 8.39"
         style="fill:#231f20;fill-opacity:1;fill-rule:nonzero;stroke:none"
         id="path110" />
      <path
         d="m 1778.13,680.375 c 14.26,-2.695 28.52,-5.293 42.78,-5.293 68.39,0 106.33,37.977 106.33,111.16 0,78.883 -42.83,111.981 -109.69,111.981 -13.18,0 -26.28,-1.887 -39.42,-3.77 z m -63.1,-9.375 13.51,1.074 c 14.61,1.524 14.61,3.406 14.61,49.199 v 130.711 c 0,45.832 0,47.668 -14.61,49.196 l -13.51,1.168 v 8.25 h 123.14 c 80.41,0 128.48,-42.063 128.48,-114.934 0,-97.672 -72.51,-133.004 -151.03,-133.004 H 1715.03 V 671"
         style="fill:#231f20;fill-opacity:1;fill-rule:nonzero;stroke:none"
         id="path112" />
      <path
         d="m 1981.45,670.949 13.5,1.176 c 14.66,1.473 14.66,3.355 14.66,49.188 v 130.671 c 0,45.832 0,47.715 -14.66,49.239 l -13.5,1.078 v 8.297 h 161.89 c 1.52,-8.297 4.12,-22.555 4.12,-39.825 0,-8.648 -0.76,-11.66 -0.76,-15.015 l -9.01,-1.531 c -8.21,40.226 -9.02,45.832 -61.94,45.832 h -31.21 V 796.785 H 2078 c 29.29,0 36.05,0.356 38.34,15.738 l 1.83,12.829 h 9.78 v -67.586 h -9.78 l -1.83,12.699 c -2.29,15.422 -9.05,15.777 -38.34,15.777 h -33.46 v -108.16 c 13.51,-2.602 27.45,-4.836 40.95,-4.836 59.72,0 63.49,22.461 71.03,53.27 l 9.37,-1.485 c -1.16,-24.031 -6.01,-41.656 -12.42,-62.332 h -172.02 v 8.25"
         style="fill:#231f20;fill-opacity:1;fill-rule:nonzero;stroke:none"
         id="path114" />
      <path
         d="m 2419.97,675.844 c -12.77,-4.895 -53.72,-18.789 -93.9,-18.789 -75.46,0 -143.09,33.047 -143.09,128.832 0,100.269 80.71,130.363 140.05,130.363 38.34,0 66.85,-9.418 76.63,-15.387 3.37,-15.062 6.05,-36.859 6.05,-55.605 l -10.17,-2.328 c -3.77,15.066 -8.62,60.898 -72.87,60.898 -61.58,0 -100.28,-40.586 -100.28,-110.812 0,-64.215 32.7,-123.539 106.28,-123.539 13.5,0 30.81,1.472 43.95,4.843 v 13.946 c 0,45.781 0,56.093 -26.23,57.617 l -13.55,1.125 v 8.297 h 95.34 v -8.297 l -13.49,-1.125 c -7.14,-1.524 -7.14,-11.836 -7.14,-48.289 0,-11.211 0,-13.5 6.05,-13.5 h 3.72 l 2.65,-8.25"
         style="fill:#231f20;fill-opacity:1;fill-rule:nonzero;stroke:none"
         id="path116" />
      <path
         d="m 2445.4,670.949 13.55,1.176 c 14.65,1.473 14.65,3.355 14.65,49.188 v 130.671 c 0,45.832 0,47.715 -14.65,49.239 l -13.55,1.078 v 8.297 h 91.3 v -8.297 l -13.55,-1.078 c -14.65,-1.524 -14.65,-3.407 -14.65,-49.239 V 677.727 c 13.54,-2.247 27.49,-4.481 40.98,-4.481 55.61,0 59.33,22.461 66.87,53.27 l 9.32,-1.485 c -1.08,-24.031 -5.96,-41.656 -12.33,-62.332 H 2445.4 v 8.25"
         style="fill:#231f20;fill-opacity:1;fill-rule:nonzero;stroke:none"
         id="path118" />
      <path
         d="m 2636.39,670.949 13.49,1.176 c 14.62,1.473 14.62,3.355 14.62,49.188 v 130.671 c 0,45.832 0,47.715 -14.62,49.239 l -13.49,1.078 v 8.297 h 91.26 v -8.297 l -13.55,-1.078 c -14.62,-1.524 -14.62,-3.407 -14.62,-49.239 V 721.313 c 0,-45.833 0,-47.715 14.62,-49.188 l 13.55,-1.176 v -8.25 h -91.26 v 8.25"
         style="fill:#231f20;fill-opacity:1;fill-rule:nonzero;stroke:none"
         id="path120" />
      <path
         d="m 2934.95,805.031 c 29.65,-16.902 60.45,-32.644 60.45,-77.754 0,-50.672 -46.9,-70.183 -86.77,-70.183 -29.24,0 -47.31,7.851 -58.92,15.031 -6.77,14.617 -12.01,42.422 -12.01,66.051 l 12.01,3.047 c 4.12,-27.039 18.02,-71.746 69.51,-71.746 25.87,0 45.02,16.855 45.02,46.14 0,27.492 -22.91,46.192 -52.2,59.375 l -24.03,13.137 c -21.44,11.66 -41.31,34.93 -41.31,63.094 0,45.832 38.3,64.984 78.08,64.984 23.32,0 42.06,-6.012 51.88,-12.023 2.96,-11.973 3.77,-42.422 3.77,-51.793 h -9.42 c -3.72,18.789 -9.73,51.48 -52.2,51.48 -21.79,0 -40.94,-15.828 -40.94,-40.988 0,-22.153 16.09,-34.215 36.46,-46.192 l 20.62,-11.66"
         style="fill:#231f20;fill-opacity:1;fill-rule:nonzero;stroke:none"
         id="path122" />
      <path
         d="m 3056.04,670.949 13.89,1.176 c 20.68,1.473 20.68,3.355 20.68,49.188 v 178.746 h -19.56 c -52.95,0 -53.67,-5.606 -61.97,-49.196 h -9.01 c 0,1.485 -0.76,11.617 -0.76,16.547 0,17.266 2.64,34.891 4.17,43.188 h 209.2 c 1.47,-8.297 4.12,-25.922 4.12,-43.188 0,-4.93 -0.73,-15.062 -0.73,-16.547 h -9.05 c -8.25,43.59 -9.01,49.196 -61.93,49.196 H 3125.5 V 721.313 c 0,-45.833 0,-47.715 21.02,-49.188 l 13.55,-1.176 v -8.25 h -104.03 v 8.25"
         style="fill:#231f20;fill-opacity:1;fill-rule:nonzero;stroke:none"
         id="path124" />
      <path
         d="m 3438.32,670.188 c -5.29,5.246 -8.25,10.539 -13.9,10.539 -5.29,0 -36.41,-23.672 -86.36,-23.672 -77.81,0 -84.13,44.707 -84.13,95.781 v 99.148 c 0,45.832 0,47.715 -14.67,49.239 l -13.54,1.125 v 8.25 h 91.25 v -8.25 l -13.53,-1.125 c -14.62,-1.524 -14.62,-3.407 -14.62,-49.239 v -93.132 c 0,-53.68 9.05,-89.375 67.25,-89.375 39.03,0 62.34,23.273 67.99,30.039 v 152.468 c 0,45.832 0,47.715 -14.7,49.239 l -13.46,1.125 v 8.25 h 91.21 v -8.25 l -13.54,-1.125 c -14.62,-1.524 -14.62,-3.407 -14.62,-49.239 V 662.699 l -11.25,-3.359 -9.38,10.848"
         style="fill:#231f20;fill-opacity:1;fill-rule:nonzero;stroke:none"
         id="path126" />
      <path
         d="m 3573.61,680.375 c 14.22,-2.695 28.48,-5.293 42.79,-5.293 68.39,0 106.28,37.977 106.28,111.16 0,78.883 -42.79,111.981 -109.65,111.981 -13.19,0 -26.32,-1.887 -39.42,-3.77 z m -63.09,-9.375 13.5,1.074 c 14.61,1.524 14.61,3.406 14.61,49.199 v 130.711 c 0,45.832 0,47.668 -14.61,49.196 l -13.5,1.168 v 8.25 h 123.14 c 80.4,0 128.48,-42.063 128.48,-114.934 0,-97.672 -72.51,-133.004 -150.99,-133.004 H 3510.52 V 671"
         style="fill:#231f20;fill-opacity:1;fill-rule:nonzero;stroke:none"
         id="path128" />
      <path
         d="m 3780.43,670.949 13.54,1.176 c 14.67,1.473 14.67,3.355 14.67,49.188 v 130.671 c 0,45.832 0,47.715 -14.67,49.239 l -13.54,1.078 v 8.297 h 91.31 v -8.297 l -13.51,-1.078 c -14.7,-1.524 -14.7,-3.407 -14.7,-49.239 V 721.313 c 0,-45.833 0,-47.715 14.7,-49.188 l 13.51,-1.176 v -8.25 h -91.31 v 8.25"
         style="fill:#231f20;fill-opacity:1;fill-rule:nonzero;stroke:none"
         id="path130" />
      <path
         d="m 1778.13,294.762 c 14.26,-2.653 28.52,-5.242 42.78,-5.242 68.39,0 106.33,37.929 106.33,111.171 0,78.829 -42.83,111.868 -109.69,111.868 -13.18,0 -26.28,-1.868 -39.42,-3.758 z m -63.1,-9.371 13.51,1.121 c 14.61,1.476 14.61,3.367 14.61,49.199 v 130.668 c 0,45.832 0,47.723 -14.61,49.191 l -13.51,1.168 v 8.242 h 123.19 c 80.36,0 128.43,-42.058 128.43,-114.929 0,-97.621 -72.47,-132.961 -151.03,-132.961 h -100.59 v 8.301"
         style="fill:#231f20;fill-opacity:1;fill-rule:nonzero;stroke:none"
         id="path132" />
      <path
         d="m 1992.48,285.352 13.55,1.16 c 14.61,1.476 14.61,3.367 14.61,49.199 v 130.711 c 0,45.789 0,47.68 -14.61,49.199 l -13.55,1.117 v 8.211 h 91.26 v -8.211 l -13.5,-1.117 c -14.66,-1.519 -14.66,-3.41 -14.66,-49.199 V 335.711 c 0,-45.832 0,-47.723 14.66,-49.199 l 13.5,-1.16 v -8.262 h -91.26 v 8.262"
         style="fill:#231f20;fill-opacity:1;fill-rule:nonzero;stroke:none"
         id="path134" />
      <path
         d="m 2467.87,388.672 c 11.25,0.707 22.91,1.828 34.17,1.828 12.01,0 24.07,-0.359 36.05,-1.828 l -34.53,90.848 z m -78.89,-103.32 7.18,1.117 c 14.22,2.281 16.11,6.402 25.16,28.16 l 78.11,190.043 c 3.01,7.539 6.02,15.066 8.98,22.199 l 10.89,3.719 83.77,-217.488 c 5.65,-14.93 9.42,-23.582 19.2,-25.512 l 15.02,-2.238 v -8.262 h -93.19 v 8.262 l 16.91,3 c 6.76,1.168 11.66,3 11.66,7.168 0,2.652 -1.53,5.261 -2.25,7.851 l -26.32,70.988 c -13.86,2.653 -27.75,3.77 -41.66,3.77 -13.18,0 -26.28,-1.488 -39.41,-3.77 l -19.2,-52.199 c -4.53,-12.019 -7.49,-22.109 -7.49,-25.148 0,-7.133 4.84,-8.262 8.97,-8.66 l 22.56,-3 v -8.262 h -78.89 v 8.262"
         style="fill:#231f20;fill-opacity:1;fill-rule:nonzero;stroke:none"
         id="path136" />
      <path
         d="m 2658.45,285.352 13.5,1.16 c 14.66,1.476 14.66,3.367 14.66,49.199 v 130.711 c 0,45.789 0,47.68 -14.66,49.199 l -13.5,1.117 v 8.211 h 91.26 v -8.211 l -13.55,-1.117 c -14.62,-1.519 -14.62,-3.41 -14.62,-49.199 V 292.109 c 13.55,-2.23 27.41,-4.519 40.9,-4.519 55.61,0 59.38,22.551 66.91,53.359 l 9.37,-1.469 c -1.12,-24.089 -6.01,-41.71 -12.42,-62.39 h -167.85 v 8.262"
         style="fill:#231f20;fill-opacity:1;fill-rule:nonzero;stroke:none"
         id="path138" />
      <path
         d="m 2857.29,285.352 13.49,1.16 c 14.67,1.476 14.67,3.367 14.67,49.199 v 130.711 c 0,45.789 0,47.68 -14.67,49.199 l -13.49,1.117 v 8.211 h 161.83 c 1.53,-8.211 4.18,-22.508 4.18,-39.777 0,-8.66 -0.81,-11.613 -0.81,-15.031 l -9.01,-1.469 c -8.26,40.168 -8.97,45.828 -61.94,45.828 h -31.16 V 411.18 h 33.41 c 29.33,0 36.05,0.359 38.3,15.781 l 1.87,12.777 h 9.79 V 372.16 h -9.79 l -1.87,12.738 c -2.25,15.383 -8.97,15.793 -38.3,15.793 h -33.41 V 292.52 c 13.55,-2.641 27.4,-4.93 40.95,-4.93 59.64,0 63.45,22.551 70.94,53.359 l 9.41,-1.469 c -1.11,-24.089 -6.01,-41.71 -12.37,-62.39 h -172.02 v 8.262"
         style="fill:#231f20;fill-opacity:1;fill-rule:nonzero;stroke:none"
         id="path140" />
      <path
         d="m 3128.05,395.789 h 21.43 c 31.57,0 60.1,16.91 60.1,59.332 0,43.949 -28.93,57.438 -58.21,57.438 -7.84,0 -15.78,-1.469 -23.32,-3 z m -63.09,-110.437 13.54,1.16 c 14.62,1.519 14.62,3.32 14.62,49.148 v 130.762 c 0,45.789 0,47.707 -14.62,49.148 l -13.54,1.121 v 8.258 h 98.07 c 35.65,0 86.01,-5.211 86.01,-62.289 0,-34.941 -31.21,-55.609 -51.88,-65.34 5.64,-10.539 18.06,-34.57 28.2,-52.648 15.74,-28.16 32.29,-50.313 41.66,-55.563 3.77,-2.238 10.59,-3.757 18.84,-3.757 v -8.262 h -28.93 c -24.8,0 -42.07,16.91 -53.37,37.539 l -15.02,28.973 c -9.73,18.386 -18.42,32.687 -23.27,36.757 -6.01,4.903 -15.43,4.903 -23.28,4.903 h -13.94 V 335.66 c 0,-45.828 0,-47.629 14.3,-49.148 l 13.55,-1.16 v -8.262 h -90.94 v 8.262"
         style="fill:#231f20;fill-opacity:1;fill-rule:nonzero;stroke:none"
         id="path142" />
      <path
         d="m 3302.4,285.352 9.38,2.238 c 5.64,1.16 9.41,2.648 11.66,4.519 3.76,3.77 6.4,27.77 8.65,61.981 l 6.01,94.66 c 1.52,25.52 4.13,66.109 4.13,76.199 l 10.12,3.403 c 11.26,-19.512 96.92,-181.43 108.58,-202.02 11.97,19.148 96.14,179.457 103.27,198.617 l 9.73,3.403 c 0,-2.961 2.69,-45.071 5.29,-94.622 l 3.41,-64.98 c 1.52,-31.93 4.13,-68.391 7.09,-74.031 1.88,-3.719 7.53,-5.969 14.3,-7.129 l 11.3,-2.238 v -8.262 h -96.14 v 8.262 l 14.57,2.238 c 16.19,1.89 17.67,7.93 17.67,25.199 0,41.66 -6.37,120.582 -6.37,144.582 h -0.76 c -6.42,-16.473 -44.71,-90.141 -81.84,-163.371 -1.88,-3.762 -3.41,-8.289 -5.29,-12.012 l -10.5,-4.898 c -8.29,17.269 -55.96,108.93 -81.88,158.531 -3.76,7.078 -7.17,14.258 -10.13,21.75 h -0.81 c -1.08,-21.402 -6.37,-127.723 -6.37,-139.34 0,-22.152 0,-28.551 17.67,-30.441 l 15.02,-2.238 v -8.262 h -77.76 v 8.262"
         style="fill:#231f20;fill-opacity:1;fill-rule:nonzero;stroke:none"
         id="path144" />
      <path
         d="m 3765.14,283.871 c 63.85,0 87.85,54.828 87.85,109.641 0,70.988 -35.25,124.707 -94.26,124.707 -56.33,0 -89.37,-46.957 -89.37,-111.93 0,-76.598 39.06,-122.418 95.78,-122.418 m -135.2,115.277 c 0,81.184 62.74,131.493 135.2,131.493 69.11,0 127.31,-43.95 127.31,-127.36 0,-82.64 -60.05,-131.832 -134.44,-131.832 -74.4,0 -128.07,46.582 -128.07,127.699"
         style="fill:#231f20;fill-opacity:1;fill-rule:nonzero;stroke:none"
         id="path146" />
      <path
         d="m 2321.41,382.66 h 6.36 c 35.3,0 92.43,23.629 92.43,74.711 0,61.969 -55.61,67.609 -91.3,67.609 h -97.98 v -8.242 l 13.49,-1.168 c 14.62,-1.468 14.62,-3.359 14.62,-49.191 V 335.66 c 0,-45.828 0,-47.672 -14.62,-49.191 l -13.49,-1.117 v -8.262 h 97.26 v 8.262 l -13.54,1.117 C 2294,287.988 2294,289.832 2294,335.66 v 47 z m -4.12,129.949 c 33.76,0 63.44,-13.539 63.44,-57.437 0,-56.781 -43.22,-64.274 -59.32,-64.274 H 2294 v 118.704 c 7.49,1.488 15.39,3.007 23.29,3.007"
         style="fill:#231f20;fill-opacity:1;fill-rule:nonzero;stroke:none"
         id="path148" />
    </g>
  </g>
</svg>
